<?xml version="1.0" encoding="UTF-8"?>
<svg width="69px" height="80px" viewBox="0 0 69 80" version="1.1" xmlns="http://www.w3.org/2000/svg" xmlns:xlink="http://www.w3.org/1999/xlink">
    <!-- Generator: Sketch 48.2 (47327) - http://www.bohemiancoding.com/sketch -->
    <title>noun_177754_cc</title>
    <desc>Created with Sketch.</desc>
    <defs></defs>
    <g id="Page-1" stroke="none" stroke-width="1" fill="none" fill-rule="evenodd">
        <g id="noun_177754_cc" fill-rule="nonzero">
            <g id="Group">
                <path d="M27.4,72.4 L7.4,72.4 C4.2,72.4 1.7,69.8 1.7,66.7 L1.7,13.3 C1.7,10.1 4.3,7.6 7.4,7.6 L32.7,7.6 L28.3,12 C28,12.3 28,12.8 28.3,13.2 C28.5,13.4 28.7,13.4 28.9,13.4 C29.1,13.4 29.3,13.3 29.5,13.2 L35.3,7.4 C35.5,7.2 35.5,7 35.5,6.8 C35.5,6.6 35.4,6.4 35.3,6.2 L29.5,0.4 C29.2,0.1 28.7,0.1 28.3,0.4 C28,0.7 28,1.2 28.3,1.6 L32.7,6 L7.4,6 C3.3,6 -1.77635684e-15,9.3 -1.77635684e-15,13.4 L-1.77635684e-15,66.7 C-1.77635684e-15,70.8 3.3,74.1 7.4,74.1 L27.4,74.1 C27.9,74.1 28.2,73.7 28.2,73.3 C28.2,72.7 27.8,72.4 27.4,72.4 Z" id="Shape" fill="#E7E7E7"></path>
                <path d="M60.7,6 L40.7,6 C40.2,6 39.9,6.4 39.9,6.8 C39.9,7.3 40.3,7.6 40.7,7.6 L60.7,7.6 C63.9,7.6 66.4,10.2 66.4,13.3 L66.4,66.6 C66.4,69.8 63.8,72.3 60.7,72.3 L36,72.3 L40.4,67.9 C40.7,67.6 40.7,67.1 40.4,66.7 C40.1,66.4 39.6,66.4 39.2,66.7 L33.4,72.5 C33.4,72.5 33.4,72.5 33.4,72.5 C33.4,72.5 33.3,72.6 33.3,72.6 C33.3,72.6 33.3,72.6 33.3,72.6 C33.3,72.6 33.3,72.7 33.2,72.7 C33.2,72.7 33.2,72.7 33.2,72.8 C33.2,72.8 33.2,72.9 33.2,72.9 C33.2,73 33.2,73 33.2,73.1 C33.2,73.2 33.2,73.2 33.2,73.3 C33.2,73.3 33.2,73.4 33.2,73.4 C33.2,73.4 33.2,73.4 33.2,73.5 C33.2,73.5 33.2,73.6 33.3,73.6 C33.3,73.6 33.3,73.6 33.3,73.6 C33.3,73.6 33.4,73.7 33.4,73.7 C33.4,73.7 33.4,73.7 33.4,73.7 L39.2,79.5 C39.4,79.7 39.6,79.7 39.8,79.7 C40,79.7 40.2,79.6 40.4,79.5 C40.7,79.2 40.7,78.7 40.4,78.3 L36,74 L60.7,74 C64.8,74 68.1,70.7 68.1,66.6 L68.1,13.3 C68.1,9.3 64.7,6 60.7,6 Z" id="Shape" fill="#E7E7E7"></path>
                <path d="M26.4,40.2 C31.3,37 31.5,33.5 31.5,33.1 C31.5,32.7 31.7,28.7 29.5,26.3 C28.5,25.2 27.1,24.7 25.5,24.7 C23.9,24.7 22.5,25.2 21.5,26.3 C19.2,28.7 19.3,32.9 19.3,33.1 C19.3,33.6 19.7,33.9 20.1,33.9 C20.6,33.9 20.9,33.5 20.9,33.1 C20.9,33.1 20.8,29.4 22.7,27.5 C23.4,26.7 24.4,26.4 25.5,26.4 C26.7,26.4 27.6,26.8 28.3,27.5 C30.1,29.4 29.9,33 29.9,33.1 C29.9,33.1 29.9,33.1 29.9,33.2 C29.9,33.2 29.8,36.2 25.5,38.9 C23.9,39.9 19,43.1 19,54.3 C19,54.8 19.4,55.1 19.8,55.1 L30.7,55.1 C31.2,55.1 31.5,54.7 31.5,54.3 L31.5,47.9 C31.5,47.4 31.1,47.1 30.7,47.1 C30.2,47.1 29.9,47.5 29.9,47.9 L29.9,53.4 L20.7,53.4 C20.9,44.9 24,41.8 26.4,40.2 Z" id="Shape" fill="#000000"></path>
                <path d="M45.3,25.1 C44.9,25 44.5,25.2 44.4,25.5 L33.9,46.2 C33.8,46.5 33.8,46.8 33.9,47 C34.1,47.2 34.3,47.4 34.6,47.4 L44.3,47.4 L44.3,54.3 C44.3,54.8 44.7,55.1 45.1,55.1 C45.5,55.1 45.9,54.7 45.9,54.3 L45.9,47.4 L48.1,47.4 C48.6,47.4 48.9,47 48.9,46.6 C48.9,46.1 48.5,45.8 48.1,45.8 L46,45.8 L46,25.9 C46,25.5 45.7,25.2 45.3,25.1 Z M44.3,45.7 L36,45.7 L44.4,29.3 L44.4,45.7 L44.3,45.7 Z" id="Shape" fill="#000000"></path>
            </g>
        </g>
    </g>
</svg>