<?xml version="1.0" encoding="UTF-8"?>
<svg width="90px" height="93px" viewBox="0 0 90 93" version="1.1" xmlns="http://www.w3.org/2000/svg" xmlns:xlink="http://www.w3.org/1999/xlink">
    <!-- Generator: Sketch 48.2 (47327) - http://www.bohemiancoding.com/sketch -->
    <title>noun_1016928_cc</title>
    <desc>Created with Sketch.</desc>
    <defs></defs>
    <g id="Page-1" stroke="none" stroke-width="1" fill="none" fill-rule="evenodd">
        <g id="noun_1016928_cc">
            <g id="Group" transform="translate(0.000000, 0.637820)">
                <path d="M9.03120025,5.99999739 C4.04769989,5.99999739 0,10.0478956 0,15.0311935 L0,74.9688074 C0,79.9520052 4.04769989,84.0000035 9.03120025,84.0000035 L61.7499988,84.0000035 C64.2681007,88.7562014 69.2530016,92 75.0000004,92 C83.2724002,92 90,85.2724029 90,77.0000065 C90,70.4777094 85.8240001,64.9365118 80.0000003,62.8750127 L80.0000003,15.0311935 C80.0000003,10.0478956 75.9521004,5.99999739 70.9688005,5.99999739 L65.0000007,5.99999739 C64.4717007,5.99299739 63.9858007,6.47162719 63.9858007,6.99999696 C63.9858007,7.52836673 64.4717007,8.00746652 65.0000007,7.99999652 L70.9688005,7.99999652 C74.8769014,7.99999652 78.0000003,11.1231952 78.0000003,15.0311935 L78.0000003,30.000027 L1.99999994,30.000027 L1.99999994,15.0311935 C1.99999994,11.1231952 5.12299936,7.99999652 9.03119925,7.99999652 L14.9999991,7.99999652 C15.5282991,8.00699652 16.0141991,7.52836673 16.0141991,6.99999696 C16.0141991,6.47162719 15.5282991,5.99252739 14.9999991,5.99999739 L9.03120025,5.99999739 Z M26.9999998,5.99999739 C26.4476998,5.99999739 25.9999998,6.4476972 25.9999998,6.99999696 C25.9999998,7.55229672 26.4476998,7.99999652 26.9999998,7.99999652 L52.999999,7.99999652 C53.552299,7.99999652 53.999999,7.55229672 53.999999,6.99999696 C53.999999,6.4476972 53.552299,5.99999739 52.999999,5.99999739 L26.9999998,5.99999739 Z M1.99999994,32.0000261 L78.0000013,32.0000261 L78.0000013,62.3125129 C77.0335014,62.116313 76.0236014,62.000013 75.0000014,62.000013 C66.7276016,62.000013 59.9999988,68.7276101 59.9999988,77.0000065 C59.9999988,78.7501058 60.3217978,80.437205 60.8749988,82.0000043 L9.03120025,82.0000043 C5.12300036,82.0000043 1.99999994,78.8767057 1.99999994,74.9688074 L1.99999994,32.0000261 Z" id="Shape" fill="#000000" fill-rule="nonzero"></path>
                <path d="M58.9999989,0 C58.4476989,0 57.9999989,0.447699805 57.9999989,0.999999565 L57.9999989,13.0937943 C55.165199,13.5683941 52.999999,16.034993 52.999999,18.9999917 C52.999999,22.3019303 55.698098,25.0000291 58.9999989,25.0000291 C62.3018988,25.0000291 65.0000017,22.3019303 65.0000017,18.9999917 C65.0000017,16.034993 62.8347988,13.5683941 59.9999988,13.0937943 L59.9999988,0.999999565 C59.9999988,0.447699805 59.5522988,0 58.9999989,0 Z" id="Path" fill="#E7E7E7"></path>
                <path d="M20.9999999,0 C20.4476999,0 19.9999999,0.447699805 19.9999999,0.999999565 L19.9999999,13.0937943 C17.1652,13.5683941 15.0000001,16.034993 15.0000001,18.9999917 C15.0000001,22.3019303 17.698099,25.0000291 20.9999999,25.0000291 C24.3018998,25.0000291 26.9999998,22.3019303 26.9999998,18.9999917 C26.9999998,16.034993 24.8347998,13.5683941 21.9999999,13.0937943 L21.9999999,0.999999565 C21.9999999,0.447699805 21.5522999,0 20.9999999,0 Z" id="Path" fill="#E7E7E7"></path>
                <path d="M20.9999999,14.9999935 C23.2209999,14.9999935 24.9999998,16.7789927 24.9999998,18.9999917 C24.9999998,21.2210308 23.2209999,23.00003 20.9999999,23.00003 C18.778999,23.00003 17,21.2210308 17,18.9999917 C17,16.7789927 18.778999,14.9999935 20.9999999,14.9999935 Z" id="Path" fill="#FFFFFF"></path>
                <path d="M58.9999989,14.9999935 C61.2209988,14.9999935 62.9999988,16.7789927 62.9999988,18.9999917 C62.9999988,21.2210308 61.2209988,23.00003 58.9999989,23.00003 C56.7789979,23.00003 54.999999,21.2210308 54.999999,18.9999917 C54.999999,16.7789927 56.7789979,14.9999935 58.9999989,14.9999935 Z" id="Path" fill="#FFFFFF"></path>
                <path d="M75.0000014,64.0000122 C82.1916012,64.0000122 88.0000011,69.8084096 88.0000011,77.0000065 C88.0000011,84.1915034 82.1916012,90.0000009 75.0000014,90.0000009 C67.8084016,90.0000009 61.9999988,84.1915034 61.9999988,77.0000065 C61.9999988,69.8084096 67.8084016,64.0000122 75.0000004,64.0000122 L75.0000014,64.0000122 Z" id="Path" fill="#000000"></path>
                <path d="M75.0000014,68.0000104 C74.4477014,68.0000104 74.0000014,68.4477104 74.0000014,69.0000104 L74.0000014,77.0000104 C74.0000014,77.5523104 74.4477014,78.0000104 75.0000014,78.0000104 L82.0000014,78.0000104 C82.5523014,78.0000104 83.0000014,77.5523104 83.0000014,77.0000104 C83.0000014,76.4477104 82.5523014,76.0000104 82.0000014,76.0000104 L76.0000014,76.0000104 L76.0000014,69.0000104 C76.0000014,68.4477104 75.5523014,68.0000104 75.0000014,68.0000104 Z" id="Path" fill="#E7E7E7"></path>
            </g>
        </g>
    </g>
</svg>