<?xml version="1.0" encoding="UTF-8"?>
<svg width="90px" height="93px" viewBox="0 0 90 93" version="1.1" xmlns="http://www.w3.org/2000/svg" xmlns:xlink="http://www.w3.org/1999/xlink">
    <!-- Generator: Sketch 48.2 (47327) - http://www.bohemiancoding.com/sketch -->
    <title>cal</title>
    <desc>Created with Sketch.</desc>
    <defs></defs>
    <g id="Page-1" stroke="none" stroke-width="1" fill="none" fill-rule="evenodd">
        <g id="cal" fill-rule="nonzero">
            <path d="M9.03120025,6.63781739 C4.04769989,6.63781739 0,10.6857156 0,15.6690135 L0,75.6066274 C0,80.5898252 4.04769989,84.6378235 9.03120025,84.6378235 L61.7499988,84.6378235 C64.2681007,89.3940214 69.2530016,92.63782 75.0000004,92.63782 C83.2724002,92.63782 90,85.9102229 90,77.6378265 C90,71.1155294 85.8240001,65.5743318 80.0000003,63.5128327 L80.0000003,15.6690135 C80.0000003,10.6857156 75.9521004,6.63781739 70.9688005,6.63781739 L65.0000007,6.63781739 C64.4717007,6.63081739 63.9858007,7.10944719 63.9858007,7.63781696 C63.9858007,8.16618673 64.4717007,8.64528652 65.0000007,8.63781652 L70.9688005,8.63781652 C74.8769014,8.63781652 78.0000003,11.7610152 78.0000003,15.6690135 L78.0000003,30.637847 L1.99999994,30.637847 L1.99999994,15.6690135 C1.99999994,11.7610152 5.12299936,8.63781652 9.03119925,8.63781652 L14.9999991,8.63781652 C15.5282991,8.64481652 16.0141991,8.16618673 16.0141991,7.63781696 C16.0141991,7.10944719 15.5282991,6.63034739 14.9999991,6.63781739 L9.03120025,6.63781739 Z M26.9999998,6.63781739 C26.4476998,6.63781739 25.9999998,7.0855172 25.9999998,7.63781696 C25.9999998,8.19011672 26.4476998,8.63781652 26.9999998,8.63781652 L52.999999,8.63781652 C53.552299,8.63781652 53.999999,8.19011672 53.999999,7.63781696 C53.999999,7.0855172 53.552299,6.63781739 52.999999,6.63781739 L26.9999998,6.63781739 Z M1.99999994,32.6378461 L78.0000013,32.6378461 L78.0000013,62.9503329 C77.0335014,62.754133 76.0236014,62.637833 75.0000014,62.637833 C66.7276016,62.637833 59.9999988,69.3654301 59.9999988,77.6378265 C59.9999988,79.3879258 60.3217978,81.075025 60.8749988,82.6378243 L9.03120025,82.6378243 C5.12300036,82.6378243 1.99999994,79.5145257 1.99999994,75.6066274 L1.99999994,32.6378461 Z" id="Shape" fill="#E7E7E7"></path>
            <path d="M58.9999989,0.63782 C58.4476989,0.63782 57.9999989,1.0855198 57.9999989,1.63781956 L57.9999989,13.7316143 C55.165199,14.2062141 52.999999,16.672813 52.999999,19.6378117 C52.999999,22.9397503 55.698098,25.6378491 58.9999989,25.6378491 C62.3018988,25.6378491 65.0000017,22.9397503 65.0000017,19.6378117 C65.0000017,16.672813 62.8347988,14.2062141 59.9999988,13.7316143 L59.9999988,1.63781956 C59.9999988,1.0855198 59.5522988,0.63782 58.9999989,0.63782 Z" id="Path" fill="#E7E7E7"></path>
            <path d="M20.9999999,0.63782 C20.4476999,0.63782 19.9999999,1.0855198 19.9999999,1.63781956 L19.9999999,13.7316143 C17.1652,14.2062141 15.0000001,16.672813 15.0000001,19.6378117 C15.0000001,22.9397503 17.698099,25.6378491 20.9999999,25.6378491 C24.3018998,25.6378491 26.9999998,22.9397503 26.9999998,19.6378117 C26.9999998,16.672813 24.8347998,14.2062141 21.9999999,13.7316143 L21.9999999,1.63781956 C21.9999999,1.0855198 21.5522999,0.63782 20.9999999,0.63782 Z" id="Path" fill="#E7E7E7"></path>
            <path d="M20.9999999,15.6378135 C23.2209999,15.6378135 24.9999998,17.4168127 24.9999998,19.6378117 C24.9999998,21.8588508 23.2209999,23.63785 20.9999999,23.63785 C18.778999,23.63785 17,21.8588508 17,19.6378117 C17,17.4168127 18.778999,15.6378135 20.9999999,15.6378135 Z" id="Path" fill="#FFFFFF"></path>
            <path d="M58.9999989,15.6378135 C61.2209988,15.6378135 62.9999988,17.4168127 62.9999988,19.6378117 C62.9999988,21.8588508 61.2209988,23.63785 58.9999989,23.63785 C56.7789979,23.63785 54.999999,21.8588508 54.999999,19.6378117 C54.999999,17.4168127 56.7789979,15.6378135 58.9999989,15.6378135 Z" id="Path" fill="#FFFFFF"></path>
            <path d="M75.0000014,64.6378322 C82.1916012,64.6378322 88.0000011,70.4462296 88.0000011,77.6378265 C88.0000011,84.8293234 82.1916012,90.6378209 75.0000014,90.6378209 C67.8084016,90.6378209 61.9999988,84.8293234 61.9999988,77.6378265 C61.9999988,70.4462296 67.8084016,64.6378322 75.0000004,64.6378322 L75.0000014,64.6378322 Z" id="Path" fill="#E7E7E7"></path>
            <path d="M75.0000014,68.6378304 C74.4477014,68.6378304 74.0000014,69.0855304 74.0000014,69.6378304 L74.0000014,77.6378304 C74.0000014,78.1901304 74.4477014,78.6378304 75.0000014,78.6378304 L82.0000014,78.6378304 C82.5523014,78.6378304 83.0000014,78.1901304 83.0000014,77.6378304 C83.0000014,77.0855304 82.5523014,76.6378304 82.0000014,76.6378304 L76.0000014,76.6378304 L76.0000014,69.6378304 C76.0000014,69.0855304 75.5523014,68.6378304 75.0000014,68.6378304 Z" id="Path" fill="#FFFFFF"></path>
        </g>
    </g>
</svg>