<?xml version="1.0" encoding="UTF-8"?>
<svg width="81px" height="54px" viewBox="0 0 81 54" version="1.1" xmlns="http://www.w3.org/2000/svg" xmlns:xlink="http://www.w3.org/1999/xlink">
    <!-- Generator: Sketch 48.2 (47327) - http://www.bohemiancoding.com/sketch -->
    <title>Group</title>
    <desc>Created with Sketch.</desc>
    <defs></defs>
    <g id="Page-1" stroke="none" stroke-width="1" fill="none" fill-rule="evenodd">
        <g id="Group" transform="translate(40.500000, 27.000000) scale(-1, 1) translate(-40.500000, -27.000000) " fill-rule="nonzero">
            <path d="M79.7,0.3 L67.5,0.3 C67.2,0.3 66.9,0.5 66.9,0.8 L60.3,35.6 C60.1,36.9 58.9,37.8 57.6,37.8 L11.4,37.8 C11,37.8 10.7,38.1 10.7,38.5 C10.7,38.9 11,39.2 11.4,39.2 L57.6,39.2 C59.5,39.2 61.2,37.8 61.6,35.9 L68,1.6 L79.7,1.6 C80.1,1.6 80.4,1.3 80.4,0.9 C80.4,0.6 80.1,0.3 79.7,0.3 Z" id="Shape" fill="#000000"></path>
            <path d="M17.9,43.2 C15.1,43.2 12.8,45.5 12.8,48.3 C12.8,51.1 15.1,53.4 17.9,53.4 C20.7,53.4 23,51 23,48.2 C23,45.4 20.7,43.2 17.9,43.2 Z M17.9,52 C15.8,52 14.1,50.3 14.1,48.2 C14.1,46.1 15.8,44.4 17.9,44.4 C20,44.4 21.7,46.1 21.7,48.2 C21.7,50.3 20,52 17.9,52 Z" id="Shape" fill="#000000"></path>
            <path d="M53.9,43.2 C51.1,43.2 48.8,45.5 48.8,48.3 C48.8,51.1 51.1,53.4 53.9,53.4 C56.7,53.4 59,51.1 59,48.3 C58.9,45.4 56.7,43.2 53.9,43.2 Z M53.9,52 C51.8,52 50.1,50.3 50.1,48.2 C50.1,46.1 51.8,44.4 53.9,44.4 C56,44.4 57.7,46.1 57.7,48.2 C57.6,50.3 55.9,52 53.9,52 Z" id="Shape" fill="#000000"></path>
            <path d="M60.4,10 C60.4,9.6 60.1,9.3 59.7,9.3 L1.4,9.3 C1,9.3 0.7,9.6 0.7,10 C0.7,10.4 1,10.7 1.4,10.7 L59.8,10.7 C60.1,10.7 60.4,10.4 60.4,10 Z" id="Shape" fill="#E7E7E7"></path>
            <path d="M57.6,19.9 C57.6,19.5 57.3,19.2 56.9,19.2 L3.9,19.2 C3.5,19.2 3.2,19.5 3.2,19.9 C3.2,20.3 3.5,20.6 3.9,20.6 L56.9,20.6 C57.3,20.5 57.6,20.2 57.6,19.9 Z" id="Shape" fill="#E7E7E7"></path>
            <path d="M55.9,29.5 C55.9,29.1 55.6,28.8 55.2,28.8 L7.8,28.8 C7.4,28.8 7.1,29.1 7.1,29.5 C7.1,29.9 7.4,30.2 7.8,30.2 L55.3,30.2 C55.6,30.1 55.9,29.8 55.9,29.5 Z" id="Shape" fill="#E7E7E7"></path>
        </g>
    </g>
</svg>