<?xml version="1.0" encoding="UTF-8"?>
<svg width="80px" height="64px" viewBox="0 0 80 64" version="1.1" xmlns="http://www.w3.org/2000/svg" xmlns:xlink="http://www.w3.org/1999/xlink">
    <!-- Generator: Sketch 48.2 (47327) - http://www.bohemiancoding.com/sketch -->
    <title>visa</title>
    <desc>Created with Sketch.</desc>
    <defs></defs>
    <g id="Page-1" stroke="none" stroke-width="1" fill="none" fill-rule="evenodd">
        <g id="visa" fill="#E7E7E7" fill-rule="nonzero">
            <path d="M47.8,49.6 L6.5,49.6 C3.6,49.6 1.3,47.3 1.3,44.4 L1.3,23.7 L72,23.7 L72,28.2 C72,28.6 72.3,28.9 72.7,28.9 C73.1,28.9 73.4,28.6 73.4,28.2 L73.4,6.9 C73.4,3.3 70.5,0.4 66.9,0.4 L6.5,0.4 C2.9,0.4 0,3.3 0,6.9 L0,44.5 C0,48.1 2.9,51 6.5,51 L47.8,51 C48.2,51 48.5,50.7 48.5,50.3 C48.5,49.9 48.2,49.6 47.8,49.6 Z M1.3,22.4 L1.3,14 L72,14 L72,22.4 L1.3,22.4 Z M6.5,1.7 L66.9,1.7 C69.8,1.7 72.1,4 72.1,6.9 L72.1,12.7 L1.3,12.7 L1.3,6.9 C1.3,4 3.6,1.7 6.5,1.7 Z" id="Shape"></path>
            <path d="M41.2,31.3 L10,31.3 C9.6,31.3 9.3,31.6 9.3,32 C9.3,32.4 9.6,32.7 10,32.7 L41.2,32.7 C41.6,32.7 41.9,32.4 41.9,32 C41.9,31.6 41.6,31.3 41.2,31.3 Z" id="Shape"></path>
            <path d="M41.2,35.9 L10,35.9 C9.6,35.9 9.3,36.2 9.3,36.6 C9.3,37 9.6,37.3 10,37.3 L41.2,37.3 C41.6,37.3 41.9,37 41.9,36.6 C41.9,36.2 41.6,35.9 41.2,35.9 Z" id="Shape"></path>
            <path d="M41.2,40.5 L10,40.5 C9.6,40.5 9.3,40.8 9.3,41.2 C9.3,41.6 9.6,41.9 10,41.9 L41.2,41.9 C41.6,41.9 41.9,41.6 41.9,41.2 C41.9,40.8 41.6,40.5 41.2,40.5 Z" id="Shape"></path>
            <path d="M78.5,46.6 L75,46.6 L75,41.9 C75,37.1 71.1,33.2 66.3,33.2 C61.5,33.2 57.6,37.1 57.6,41.9 L57.6,46.6 L54.1,46.6 C53.7,46.6 53.4,46.9 53.4,47.3 L53.4,62.9 C53.4,63.3 53.7,63.6 54.1,63.6 L78.6,63.6 C79,63.6 79.3,63.3 79.3,62.9 L79.3,47.2 C79.2,46.9 78.9,46.6 78.5,46.6 Z M58.9,41.9 C58.9,37.8 62.2,34.5 66.3,34.5 C70.4,34.5 73.7,37.8 73.7,41.9 L73.7,46.6 L58.9,46.6 L58.9,41.9 Z M77.9,62.2 L54.7,62.2 L54.7,47.9 L77.9,47.9 L77.9,62.2 Z" id="Shape"></path>
            <path d="M66.3,52.6 C65.9,52.6 65.6,52.9 65.6,53.3 L65.6,57.2 C65.6,57.6 65.9,57.9 66.3,57.9 C66.7,57.9 67,57.6 67,57.2 L67,53.3 C66.9,52.9 66.6,52.6 66.3,52.6 Z" id="Shape"></path>
        </g>
    </g>
</svg>