<?xml version="1.0" encoding="UTF-8"?>
<svg width="254px" height="478px" viewBox="0 0 254 478" version="1.1" xmlns="http://www.w3.org/2000/svg" xmlns:xlink="http://www.w3.org/1999/xlink">
    <!-- Generator: Sketch 47.1 (45422) - http://www.bohemiancoding.com/sketch -->
    <title>Nexus 6P</title>
    <desc>Created with Sketch.</desc>
    <defs>
        <path d="M101.570309,6.17816092 C157.666041,6.17816092 203.140617,4.64370602 203.140617,2.75085997 C203.140617,0.858013925 140.854499,1.48240968e-16 101.570309,0 C62.286118,-1.46315761e-16 0,0.858013925 0,2.75085997 C0,4.64370602 45.4745761,6.17816092 101.570309,6.17816092 Z" id="path-1"></path>
        <filter x="-25.4%" y="-817.4%" width="150.7%" height="1767.2%" filterUnits="objectBoundingBox" id="filter-2">
            <feOffset dx="0" dy="1" in="SourceAlpha" result="shadowOffsetOuter1"></feOffset>
            <feGaussianBlur stdDeviation="17" in="shadowOffsetOuter1" result="shadowBlurOuter1"></feGaussianBlur>
            <feColorMatrix values="0 0 0 0 0   0 0 0 0 0   0 0 0 0 0  0 0 0 0.12 0" type="matrix" in="shadowBlurOuter1"></feColorMatrix>
        </filter>
        <path d="M101.596424,5.15145738 C155.083461,5.15145738 198.443271,3.96574223 198.443271,2.50308847 C198.443271,1.04043471 139.053729,0.377423947 101.596424,0.377423947 C64.1391194,0.377423947 4.74957716,1.04043471 4.74957716,2.50308847 C4.74957716,3.96574223 48.1093874,5.15145738 101.596424,5.15145738 Z" id="path-3"></path>
        <filter x="-10.3%" y="-398.0%" width="120.7%" height="937.9%" filterUnits="objectBoundingBox" id="filter-4">
            <feOffset dx="0" dy="1" in="SourceAlpha" result="shadowOffsetOuter1"></feOffset>
            <feGaussianBlur stdDeviation="6.5" in="shadowOffsetOuter1" result="shadowBlurOuter1"></feGaussianBlur>
            <feColorMatrix values="0 0 0 0 0   0 0 0 0 0   0 0 0 0 0  0 0 0 0.08 0" type="matrix" in="shadowBlurOuter1"></feColorMatrix>
        </filter>
        <path d="M101.596424,3.83337152 C151.394699,3.83337152 191.764178,3.20563997 191.764178,2.43129386 C191.764178,1.65694775 136.470466,1.30594206 101.596424,1.30594206 C66.7223818,1.30594206 11.42867,1.65694775 11.42867,2.43129386 C11.42867,3.20563997 51.7981486,3.83337152 101.596424,3.83337152 Z" id="path-5"></path>
        <filter x="-7.8%" y="-514.4%" width="115.5%" height="1207.8%" filterUnits="objectBoundingBox" id="filter-6">
            <feOffset dx="0" dy="1" in="SourceAlpha" result="shadowOffsetOuter1"></feOffset>
            <feGaussianBlur stdDeviation="4.5" in="shadowOffsetOuter1" result="shadowBlurOuter1"></feGaussianBlur>
            <feColorMatrix values="0 0 0 0 0   0 0 0 0 0   0 0 0 0 0  0 0 0 0.24 0" type="matrix" in="shadowBlurOuter1"></feColorMatrix>
        </filter>
        <rect id="path-7" x="212.803321" y="188.777139" width="2.19667944" height="55.4661558" rx="1.09833972"></rect>
        <filter x="-91.0%" y="-3.6%" width="282.1%" height="107.2%" filterUnits="objectBoundingBox" id="filter-8">
            <feGaussianBlur stdDeviation="0.5" in="SourceAlpha" result="shadowBlurInner1"></feGaussianBlur>
            <feOffset dx="-3" dy="0" in="shadowBlurInner1" result="shadowOffsetInner1"></feOffset>
            <feComposite in="shadowOffsetInner1" in2="SourceAlpha" operator="arithmetic" k2="-1" k3="1" result="shadowInnerInner1"></feComposite>
            <feColorMatrix values="0 0 0 0 1   0 0 0 0 1   0 0 0 0 1  0 0 0 0.6 0" type="matrix" in="shadowInnerInner1"></feColorMatrix>
        </filter>
        <rect id="path-9" x="212.803321" y="144.706258" width="2.19667944" height="27.8703704" rx="1.09833972"></rect>
        <filter x="-91.0%" y="-7.2%" width="282.1%" height="114.4%" filterUnits="objectBoundingBox" id="filter-10">
            <feGaussianBlur stdDeviation="0.5" in="SourceAlpha" result="shadowBlurInner1"></feGaussianBlur>
            <feOffset dx="-3" dy="0" in="shadowBlurInner1" result="shadowOffsetInner1"></feOffset>
            <feComposite in="shadowOffsetInner1" in2="SourceAlpha" operator="arithmetic" k2="-1" k3="1" result="shadowInnerInner1"></feComposite>
            <feColorMatrix values="0 0 0 0 1   0 0 0 0 1   0 0 0 0 1  0 0 0 0.6 0" type="matrix" in="shadowInnerInner1"></feColorMatrix>
        </filter>
        <path d="M179.689798,0 C180.285093,0 180.876683,0.0152394636 181.46443,0.0455810983 C186.30501,0.29408046 190.912852,0.0540932312 195.633769,1.45530013 C200.25698,2.82753831 204.599148,5.31816092 207.728907,9.03672733 C212.157392,14.2983238 213.765978,21.3752011 213.772291,28.4195402 C213.771742,29.0958429 213.727417,404.871086 213.772291,405.012771 C213.521575,412.576213 213.155313,420.898471 209.077309,427.45652 C206.235318,432.026437 201.741238,435.47289 196.575153,436.987912 C191.741297,438.405594 186.676075,438.931561 181.164587,439.029863 C180.675507,439.050731 180.183956,439.061303 179.689798,439.061303 L178.348531,439.061303 L33.9536718,439.061303 C28.6392434,439.061303 22.9164246,438.614553 17.8068775,437.106944 C11.1108377,435.131306 5.75482927,430.789294 2.96127907,424.330645 C1.62014991,421.229895 0.692286996,418.273247 0.350104862,414.585077 C0.00792272714,410.896907 0.0543785418,408.077551 0.00792272727,404.738186 C0.00792272727,404.738186 0.0582853998,31.2502363 0.00792272727,30.4789272 C0.0256251381,29.8641315 0.00792272793,29.1928997 0.00792272727,28.4195402 C0.00792272714,21.2869876 1.54467452,14.0837356 6.13673477,8.78822797 C9.0015063,5.48469668 12.8633764,3.12024585 17.0087596,1.73235632 C22.0483203,0.0451692209 26.9638269,0.314811622 32.1653167,0.0461302682 C32.7574554,0.0155140485 33.3537111,0 33.9536718,0 L179.689798,0 Z" id="path-11"></path>
        <linearGradient x1="50%" y1="0.52352056%" x2="50%" y2="100%" id="linearGradient-13">
            <stop stop-color="#FFFFFF" stop-opacity="0.5" offset="0%"></stop>
            <stop stop-color="#9E9E9E" stop-opacity="0.5" offset="20%"></stop>
            <stop stop-color="#FFFFFF" stop-opacity="0.5" offset="64.8888387%"></stop>
            <stop stop-color="#666666" stop-opacity="0.5" offset="100%"></stop>
        </linearGradient>
        <path d="M181.46443,0.0455810983 C186.30501,0.29408046 190.912852,0.0540932312 195.633769,1.45530013 C200.25698,2.82753831 204.599148,5.31816092 207.728907,9.03672733 C212.157392,14.2983238 213.765978,21.3752011 213.772291,28.4195402 C213.771742,29.0958429 213.727417,404.871086 213.772291,405.012771 C213.521575,412.576213 213.155313,420.898471 209.077309,427.45652 C206.235318,432.026437 201.741238,435.47289 196.575153,436.987912 C191.741297,438.405594 186.676075,438.931561 181.164587,439.029863 C180.675507,439.050731 180.183956,439.061303 179.689798,439.061303 L178.348531,439.061303 L33.9536718,439.061303 C28.6392434,439.061303 22.9164246,438.614553 17.8068775,437.106944 C11.1108377,435.131306 5.75482927,430.789294 2.96127907,424.330645 C1.62014991,421.229895 0.692286996,418.273247 0.350104862,414.585077 C0.00792272714,410.896907 0.0543785418,408.077551 0.00792272727,404.738186 C0.00792272727,404.738186 0.0582853998,31.2502363 0.00792272727,30.4789272 C0.0256251381,29.8641315 0.00792272793,29.1928997 0.00792272727,28.4195402 C0.00792272714,21.2869876 1.54467452,14.0837356 6.13673477,8.78822797 C9.0015063,5.48469668 12.8633764,3.12024585 17.0087596,1.73235632 C22.0483203,0.0451692209 26.9638269,0.314811622 32.1653167,0.0461302682 C32.7574554,0.0155140485 33.3537111,0 33.9536718,0 C33.9536718,0 180.876683,0.0152394636 181.46443,0.0455810983 Z" id="path-14"></path>
        <filter x="-0.9%" y="-0.5%" width="101.9%" height="100.9%" filterUnits="objectBoundingBox" id="filter-15">
            <feMorphology radius="4" operator="erode" in="SourceAlpha" result="shadowSpreadInner1"></feMorphology>
            <feOffset dx="0" dy="0" in="shadowSpreadInner1" result="shadowOffsetInner1"></feOffset>
            <feComposite in="shadowOffsetInner1" in2="SourceAlpha" operator="arithmetic" k2="-1" k3="1" result="shadowInnerInner1"></feComposite>
            <feColorMatrix values="0 0 0 0 0   0 0 0 0 0   0 0 0 0 0  0 0 0 0.2 0" type="matrix" in="shadowInnerInner1"></feColorMatrix>
        </filter>
        <linearGradient x1="50%" y1="13.7815635%" x2="50%" y2="100%" id="linearGradient-16">
            <stop stop-color="#7C7C7C" offset="0%"></stop>
            <stop stop-color="#666666" offset="100%"></stop>
        </linearGradient>
        <path d="M32.7101169,0 C32.135746,0 31.5631285,0.014802671 30.9925853,0.0443023017 C30.0474547,0.0931227346 29.3217761,0.118735201 27.6320176,0.169303289 C24.0477943,0.276565554 22.4589293,0.370549481 20.5152241,0.654807052 C18.979835,0.879350367 17.5654258,1.20456097 16.201084,1.66132695 C12.1080504,3.03168963 8.52550002,5.32224352 5.93042997,8.31476666 C1.97296199,12.8784703 0.137292465,19.3045327 0.137292465,27.0466156 C0.14722983,28.504636 0.14722983,28.7806448 0.136723677,29.1455181 C0.159789314,29.405769 0.164281599,95.9662481 0.156197965,216.235126 C0.154272781,244.878146 0.15164268,275.259219 0.148484163,306.506624 C0.146035976,330.726685 0.14341292,354.077725 0.140789863,375.696083 C0.139871793,383.262509 0.139019299,390.071891 0.138254241,396.016271 C0.13798647,398.096804 0.137748756,399.920603 0.137543829,401.474172 C0.137430436,402.332009 0.137430436,402.332009 0.137356663,402.88588 C0.14461285,403.881921 0.148580259,404.272758 0.157209908,405.237807 C0.164673119,406.072414 0.168816993,406.474901 0.175538847,406.951096 C0.208796675,409.307179 0.28800705,411.084889 0.473603536,413.085319 C0.775403712,416.338237 1.5445886,419.098975 2.97782858,422.412689 C5.53806569,428.331922 10.4585233,432.501388 16.9518543,434.417219 C21.4272017,435.737702 26.6894383,436.315453 32.7101169,436.315453 L177.104977,436.315453 L178.446243,436.315453 C178.919243,436.315453 179.391275,436.305368 179.862504,436.285261 C185.802665,436.178892 190.56831,435.581221 194.945241,434.297546 C199.770601,432.882446 203.994695,429.657047 206.66786,425.358605 C208.450372,422.492055 209.5897,419.101179 210.261762,415.015882 C210.780954,411.859846 210.977878,408.98487 211.156565,403.594362 C211.142797,403.810973 211.159229,413.348447 211.14841,399.395674 C211.146306,396.681109 211.144473,392.682436 211.142905,387.445577 C211.139933,377.521569 211.13792,363.19371 211.136803,344.832569 C211.134834,312.48335 211.135666,268.36092 211.138778,215.543632 C211.143019,143.542184 211.154504,28.6559928 211.155812,27.0478459 C211.149085,19.5412746 209.296783,13.1362149 205.434955,8.54787722 C202.636005,5.2223556 198.646707,2.77789127 193.999563,1.39854938 C192.624973,0.99055966 191.195427,0.709874167 189.621673,0.523191767 C187.940172,0.323728105 183.737005,0.0729111311 180.150094,0.0437553281 C176.563183,0.0145995252 32.7101169,0 32.7101169,0 Z" id="path-17"></path>
        <linearGradient x1="-1.14724024%" y1="0.640352374%" x2="51.2726185%" y2="27.6994282%" id="linearGradient-19">
            <stop stop-color="#FFFFFF" offset="0%"></stop>
            <stop stop-color="#000000" stop-opacity="0.0645946558" offset="100%"></stop>
        </linearGradient>
        <path d="M27.6320176,0.169303289 C24.0477943,0.276565554 22.4589293,0.370549481 20.5152241,0.654807052 C18.979835,0.879350367 17.5654258,1.20456097 16.201084,1.66132695 C12.1080504,3.03168963 8.52550002,5.32224352 5.93042997,8.31476666 C1.97296199,12.8784703 0.137292465,19.3045327 0.137292465,27.0466156 C0.14722983,28.504636 0.14722983,28.7806448 0.136723677,29.1455181 C0.159789314,29.405769 0.164281599,95.9662481 0.156197965,216.235126 C0.154272781,244.878146 0.15164268,275.259219 0.148484163,306.506624 C0.146035976,330.726685 0.14341292,354.077725 0.140789863,375.696083 C0.139871793,383.262509 0.139019299,390.071891 0.138254241,396.016271 C0.13798647,398.096804 0.137748756,399.920603 0.137543829,401.474172 C0.137430436,402.332009 0.137430436,402.332009 0.137356663,402.88588 C0.14461285,403.881921 0.148580259,404.272758 0.157209908,405.237807 C0.164673119,406.072414 0.168816993,406.474901 0.175538847,406.951096 C0.208796675,409.307179 0.28800705,411.084889 0.473603536,413.085319 C0.775403712,416.338237 1.5445886,419.098975 2.97782858,422.412689 C5.53806569,428.331922 10.4585233,432.501388 16.9518543,434.417219 C21.4272017,435.737702 26.6894383,436.315453 32.7101169,436.315453 L177.104977,436.315453 L178.446243,436.315453 C178.919243,436.315453 179.391275,436.305368 179.862504,436.285261 C185.802665,436.178892 190.56831,435.581221 194.945241,434.297546 C199.770601,432.882446 203.994695,429.657047 206.66786,425.358605 C208.450372,422.492055 209.5897,419.101179 210.261762,415.015882 C210.780954,411.859846 210.977878,408.98487 211.156565,403.594362 C211.142797,403.810973 211.159229,413.348447 211.14841,399.395674 C211.146306,396.681109 211.144473,392.682436 211.142905,387.445577 C211.139933,377.521569 211.13792,363.19371 211.136803,344.832569 C211.134834,312.48335 211.135666,268.36092 211.138778,215.543632 C211.143019,143.542184 211.154504,28.6559928 211.155812,27.0478459 C211.149085,19.5412746 209.296783,13.1362149 205.434955,8.54787722 C202.636005,5.2223556 198.646707,2.77789127 193.999563,1.39854938 C192.624973,0.99055966 191.195427,0.709874167 189.621673,0.523191767 C187.940172,0.323728105 183.260236,0 178.446243,0 C178.446243,0 29.3217761,0.118735201 27.6320176,0.169303289 Z" id="path-20"></path>
        <filter x="-3.1%" y="-1.5%" width="106.2%" height="103.0%" filterUnits="objectBoundingBox" id="filter-21">
            <feMorphology radius="12" operator="erode" in="SourceAlpha" result="shadowSpreadInner1"></feMorphology>
            <feGaussianBlur stdDeviation="0.5" in="shadowSpreadInner1" result="shadowBlurInner1"></feGaussianBlur>
            <feOffset dx="0" dy="0" in="shadowBlurInner1" result="shadowOffsetInner1"></feOffset>
            <feComposite in="shadowOffsetInner1" in2="SourceAlpha" operator="arithmetic" k2="-1" k3="1" result="shadowInnerInner1"></feComposite>
            <feColorMatrix values="0 0 0 0 0   0 0 0 0 0   0 0 0 0 0  0 0 0 0.8 0" type="matrix" in="shadowInnerInner1" result="shadowMatrixInner1"></feColorMatrix>
            <feMorphology radius="8" operator="erode" in="SourceAlpha" result="shadowSpreadInner2"></feMorphology>
            <feGaussianBlur stdDeviation="0.5" in="shadowSpreadInner2" result="shadowBlurInner2"></feGaussianBlur>
            <feOffset dx="0" dy="0" in="shadowBlurInner2" result="shadowOffsetInner2"></feOffset>
            <feComposite in="shadowOffsetInner2" in2="SourceAlpha" operator="arithmetic" k2="-1" k3="1" result="shadowInnerInner2"></feComposite>
            <feColorMatrix values="0 0 0 0 1   0 0 0 0 1   0 0 0 0 1  0 0 0 0.15 0" type="matrix" in="shadowInnerInner2" result="shadowMatrixInner2"></feColorMatrix>
            <feMorphology radius="3" operator="erode" in="SourceAlpha" result="shadowSpreadInner3"></feMorphology>
            <feGaussianBlur stdDeviation="0.5" in="shadowSpreadInner3" result="shadowBlurInner3"></feGaussianBlur>
            <feOffset dx="0" dy="1" in="shadowBlurInner3" result="shadowOffsetInner3"></feOffset>
            <feComposite in="shadowOffsetInner3" in2="SourceAlpha" operator="arithmetic" k2="-1" k3="1" result="shadowInnerInner3"></feComposite>
            <feColorMatrix values="0 0 0 0 1   0 0 0 0 1   0 0 0 0 1  0 0 0 0.1 0" type="matrix" in="shadowInnerInner3" result="shadowMatrixInner3"></feColorMatrix>
            <feMorphology radius="2" operator="erode" in="SourceAlpha" result="shadowSpreadInner4"></feMorphology>
            <feGaussianBlur stdDeviation="0.5" in="shadowSpreadInner4" result="shadowBlurInner4"></feGaussianBlur>
            <feOffset dx="0" dy="0" in="shadowBlurInner4" result="shadowOffsetInner4"></feOffset>
            <feComposite in="shadowOffsetInner4" in2="SourceAlpha" operator="arithmetic" k2="-1" k3="1" result="shadowInnerInner4"></feComposite>
            <feColorMatrix values="0 0 0 0 0   0 0 0 0 0   0 0 0 0 0  0 0 0 1 0" type="matrix" in="shadowInnerInner4" result="shadowMatrixInner4"></feColorMatrix>
            <feMerge>
                <feMergeNode in="shadowMatrixInner1"></feMergeNode>
                <feMergeNode in="shadowMatrixInner2"></feMergeNode>
                <feMergeNode in="shadowMatrixInner3"></feMergeNode>
                <feMergeNode in="shadowMatrixInner4"></feMergeNode>
            </feMerge>
        </filter>
        <linearGradient x1="21.6981132%" y1="89.6226415%" x2="97.6415094%" y2="-16.0377358%" id="linearGradient-22">
            <stop stop-color="#18161D" offset="0%"></stop>
            <stop stop-color="#29252F" offset="32.3915618%"></stop>
            <stop stop-color="#302C36" offset="45.5806847%"></stop>
            <stop stop-color="#4C4553" offset="100%"></stop>
        </linearGradient>
        <radialGradient cx="73.5849057%" cy="16.509434%" fx="73.5849057%" fy="16.509434%" r="66.6080495%" gradientTransform="translate(0.735849,0.165094),rotate(37.519114),scale(1.000000,0.717312),translate(-0.735849,-0.165094)" id="radialGradient-23">
            <stop stop-color="#3D3642" offset="0%"></stop>
            <stop stop-color="#000000" stop-opacity="0" offset="100%"></stop>
        </radialGradient>
        <radialGradient cx="50%" cy="50%" fx="50%" fy="50%" r="50%" id="radialGradient-24">
            <stop stop-color="#000000" stop-opacity="0.5" offset="0%"></stop>
            <stop stop-color="#000000" stop-opacity="0" offset="100%"></stop>
        </radialGradient>
        <circle id="path-25" cx="2.7458493" cy="2.7458493" r="2.7458493"></circle>
        <filter x="-555.4%" y="-519.0%" width="1210.8%" height="1210.8%" filterUnits="objectBoundingBox" id="filter-27">
            <feMorphology radius="4" operator="dilate" in="SourceAlpha" result="shadowSpreadOuter1"></feMorphology>
            <feOffset dx="0" dy="0" in="shadowSpreadOuter1" result="shadowOffsetOuter1"></feOffset>
            <feGaussianBlur stdDeviation="2.5" in="shadowOffsetOuter1" result="shadowBlurOuter1"></feGaussianBlur>
            <feColorMatrix values="0 0 0 0 0   0 0 0 0 0   0 0 0 0 0  0 0 0 0.2 0" type="matrix" in="shadowBlurOuter1" result="shadowMatrixOuter1"></feColorMatrix>
            <feMorphology radius="4" operator="dilate" in="SourceAlpha" result="shadowSpreadOuter2"></feMorphology>
            <feOffset dx="0" dy="0" in="shadowSpreadOuter2" result="shadowOffsetOuter2"></feOffset>
            <feGaussianBlur stdDeviation="0.5" in="shadowOffsetOuter2" result="shadowBlurOuter2"></feGaussianBlur>
            <feColorMatrix values="0 0 0 0 1   0 0 0 0 1   0 0 0 0 1  0 0 0 0.1 0" type="matrix" in="shadowBlurOuter2" result="shadowMatrixOuter2"></feColorMatrix>
            <feOffset dx="0" dy="2" in="SourceAlpha" result="shadowOffsetOuter3"></feOffset>
            <feGaussianBlur stdDeviation="1" in="shadowOffsetOuter3" result="shadowBlurOuter3"></feGaussianBlur>
            <feColorMatrix values="0 0 0 0 1   0 0 0 0 1   0 0 0 0 1  0 0 0 0.1 0" type="matrix" in="shadowBlurOuter3" result="shadowMatrixOuter3"></feColorMatrix>
            <feMerge>
                <feMergeNode in="shadowMatrixOuter1"></feMergeNode>
                <feMergeNode in="shadowMatrixOuter2"></feMergeNode>
                <feMergeNode in="shadowMatrixOuter3"></feMergeNode>
            </feMerge>
        </filter>
        <filter x="-482.5%" y="-446.1%" width="1065.1%" height="1065.1%" filterUnits="objectBoundingBox" id="filter-28">
            <feMorphology radius="1" operator="erode" in="SourceAlpha" result="shadowSpreadInner1"></feMorphology>
            <feGaussianBlur stdDeviation="2" in="shadowSpreadInner1" result="shadowBlurInner1"></feGaussianBlur>
            <feOffset dx="0" dy="0" in="shadowBlurInner1" result="shadowOffsetInner1"></feOffset>
            <feComposite in="shadowOffsetInner1" in2="SourceAlpha" operator="arithmetic" k2="-1" k3="1" result="shadowInnerInner1"></feComposite>
            <feColorMatrix values="0 0 0 0 0   0 0 0 0 0   0 0 0 0 0  0 0 0 1 0" type="matrix" in="shadowInnerInner1"></feColorMatrix>
        </filter>
        <linearGradient x1="50%" y1="0%" x2="50%" y2="100%" id="linearGradient-29">
            <stop stop-color="#1D1927" offset="0%"></stop>
            <stop stop-color="#3A3140" offset="100%"></stop>
        </linearGradient>
        <filter x="-115.0%" y="-115.0%" width="330.0%" height="330.0%" filterUnits="objectBoundingBox" id="filter-30">
            <feGaussianBlur stdDeviation="1" in="SourceGraphic"></feGaussianBlur>
        </filter>
        <circle id="path-31" cx="1.30427842" cy="1.30427842" r="1"></circle>
        <filter x="-198.6%" y="-198.6%" width="497.3%" height="497.3%" filterUnits="objectBoundingBox" id="filter-32">
            <feGaussianBlur stdDeviation="1" in="SourceGraphic"></feGaussianBlur>
        </filter>
        <filter x="-660.2%" y="-576.1%" width="1420.4%" height="1252.1%" filterUnits="objectBoundingBox" id="filter-33">
            <feGaussianBlur stdDeviation="4" in="SourceGraphic"></feGaussianBlur>
        </filter>
        <path d="M0,3.43231162 L0,3.43231162 C0,1.53656271 1.53570716,0 3.43199926,0 L74.0009509,0 C75.8965002,0 77.4329502,1.53658999 77.4329502,3.43231162 C77.4329502,5.32806054 75.897243,6.86462324 74.0009509,6.86462324 L3.43199926,6.86462324 C1.53644994,6.86462324 0,5.32803325 0,3.43231162 L0,3.43231162 Z" id="path-34"></path>
        <filter x="-5.2%" y="-29.1%" width="110.3%" height="216.5%" filterUnits="objectBoundingBox" id="filter-35">
            <feOffset dx="0" dy="2" in="SourceAlpha" result="shadowOffsetOuter1"></feOffset>
            <feGaussianBlur stdDeviation="1" in="shadowOffsetOuter1" result="shadowBlurOuter1"></feGaussianBlur>
            <feColorMatrix values="0 0 0 0 1   0 0 0 0 1   0 0 0 0 1  0 0 0 0.1 0" type="matrix" in="shadowBlurOuter1"></feColorMatrix>
        </filter>
        <path d="M0,1.78480204 L0,1.78480204 L0,1.78480204 C0,2.77073773 0.798943245,3.56960409 1.78448968,3.56960409 L72.3534414,3.56960409 C73.3399743,3.56960409 74.137931,2.77052099 74.137931,1.78480204 L74.137931,1.78480204 C74.137931,0.798866361 73.3389878,0 72.3534414,0 L1.78448968,0 C0.797956767,0 0,0.799083093 0,1.78480204 L0,1.78480204 Z" id="path-36"></path>
        <filter x="-4.0%" y="-84.0%" width="108.1%" height="268.1%" filterUnits="objectBoundingBox" id="filter-38">
            <feGaussianBlur stdDeviation="1" in="SourceGraphic"></feGaussianBlur>
        </filter>
        <path d="M1.64750958,3.43231162 L1.64750958,3.43231162 L1.64750958,3.43231162 C1.64750958,4.4182473 2.44645282,5.21711367 3.43199926,5.21711367 L74.0009509,5.21711367 C74.9874838,5.21711367 75.7854406,4.41803057 75.7854406,3.43231162 L75.7854406,3.43231162 C75.7854406,2.44637594 74.9864974,1.64750958 74.0009509,1.64750958 L3.43199926,1.64750958 C2.44546635,1.64750958 1.64750958,2.44659267 1.64750958,3.43231162 L1.64750958,3.43231162 Z" id="path-39"></path>
        <filter x="-3.4%" y="-70.0%" width="106.7%" height="240.1%" filterUnits="objectBoundingBox" id="filter-40">
            <feGaussianBlur stdDeviation="1.5" in="SourceAlpha" result="shadowBlurInner1"></feGaussianBlur>
            <feOffset dx="0" dy="2" in="shadowBlurInner1" result="shadowOffsetInner1"></feOffset>
            <feComposite in="shadowOffsetInner1" in2="SourceAlpha" operator="arithmetic" k2="-1" k3="1" result="shadowInnerInner1"></feComposite>
            <feColorMatrix values="0 0 0 0 1   0 0 0 0 1   0 0 0 0 1  0 0 0 0.2 0" type="matrix" in="shadowInnerInner1"></feColorMatrix>
        </filter>
        <path d="M0,3.43231162 L0,3.43231162 C0,1.53656271 1.53570716,0 3.43199926,0 L74.0009509,0 C75.8965002,0 77.4329502,1.53658999 77.4329502,3.43231162 C77.4329502,5.32806054 75.897243,6.86462324 74.0009509,6.86462324 L3.43199926,6.86462324 C1.53644994,6.86462324 0,5.32803325 0,3.43231162 L0,3.43231162 Z" id="path-41"></path>
        <filter x="-5.2%" y="-29.1%" width="110.3%" height="216.5%" filterUnits="objectBoundingBox" id="filter-42">
            <feOffset dx="0" dy="2" in="SourceAlpha" result="shadowOffsetOuter1"></feOffset>
            <feGaussianBlur stdDeviation="1" in="shadowOffsetOuter1" result="shadowBlurOuter1"></feGaussianBlur>
            <feColorMatrix values="0 0 0 0 1   0 0 0 0 1   0 0 0 0 1  0 0 0 0.1 0" type="matrix" in="shadowBlurOuter1"></feColorMatrix>
        </filter>
        <path d="M0,1.78480204 L0,1.78480204 L0,1.78480204 C0,2.77073773 0.798943245,3.56960409 1.78448968,3.56960409 L72.3534414,3.56960409 C73.3399743,3.56960409 74.137931,2.77052099 74.137931,1.78480204 L74.137931,1.78480204 C74.137931,0.798866361 73.3389878,0 72.3534414,0 L1.78448968,0 C0.797956767,0 0,0.799083093 0,1.78480204 L0,1.78480204 Z" id="path-43"></path>
        <filter x="-4.0%" y="-84.0%" width="108.1%" height="268.1%" filterUnits="objectBoundingBox" id="filter-45">
            <feGaussianBlur stdDeviation="1" in="SourceGraphic"></feGaussianBlur>
        </filter>
        <path d="M1.64750958,3.43231162 L1.64750958,3.43231162 L1.64750958,3.43231162 C1.64750958,4.4182473 2.44645282,5.21711367 3.43199926,5.21711367 L74.0009509,5.21711367 C74.9874838,5.21711367 75.7854406,4.41803057 75.7854406,3.43231162 L75.7854406,3.43231162 C75.7854406,2.44637594 74.9864974,1.64750958 74.0009509,1.64750958 L3.43199926,1.64750958 C2.44546635,1.64750958 1.64750958,2.44659267 1.64750958,3.43231162 L1.64750958,3.43231162 Z" id="path-46"></path>
        <filter x="-3.4%" y="-70.0%" width="106.7%" height="240.1%" filterUnits="objectBoundingBox" id="filter-47">
            <feGaussianBlur stdDeviation="1.5" in="SourceAlpha" result="shadowBlurInner1"></feGaussianBlur>
            <feOffset dx="0" dy="2" in="shadowBlurInner1" result="shadowOffsetInner1"></feOffset>
            <feComposite in="shadowOffsetInner1" in2="SourceAlpha" operator="arithmetic" k2="-1" k3="1" result="shadowInnerInner1"></feComposite>
            <feColorMatrix values="0 0 0 0 1   0 0 0 0 1   0 0 0 0 1  0 0 0 0.12 0" type="matrix" in="shadowInnerInner1"></feColorMatrix>
        </filter>
    </defs>
    <g id="Nexus-6P" stroke="none" stroke-width="1" fill="none" fill-rule="evenodd">
        <g transform="translate(20.000000, 0.000000)">
            <g id="Shadow" transform="translate(5.354406, 436.590038)" fill="black" fill-opacity="1">
                <g id="Outer-Shadow">
                    <use filter="url(#filter-2)" xlink:href="#path-1"></use>
                </g>
                <g id="Middle-Shadow">
                    <use filter="url(#filter-4)" xlink:href="#path-3"></use>
                </g>
                <g id="Inner-Shadow">
                    <use filter="url(#filter-6)" xlink:href="#path-5"></use>
                </g>
            </g>
            <g id="Device">
                <g id="Button-2">
                    <use fill="#A8A8A8" fill-rule="evenodd" xlink:href="#path-7"></use>
                    <use fill="black" fill-opacity="1" filter="url(#filter-8)" xlink:href="#path-7"></use>
                    <rect stroke="#979797" stroke-width="1" x="213.303321" y="189.277139" width="1.19667944" height="54.4661558" rx="0.598339719"></rect>
                </g>
                <g id="Button-1">
                    <use fill="#A8A8A8" fill-rule="evenodd" xlink:href="#path-9"></use>
                    <use fill="black" fill-opacity="1" filter="url(#filter-10)" xlink:href="#path-9"></use>
                    <rect stroke="#979797" stroke-width="1" x="213.303321" y="145.206258" width="1.19667944" height="26.8703704" rx="0.598339719"></rect>
                </g>
                <g id="Outer-Frame-+-Antennas">
                    <mask id="mask-12" fill="white">
                        <use xlink:href="#path-11"></use>
                    </mask>
                    <g id="Mask"></g>
                    <g id="Outer-Frame" mask="url(#mask-12)">
                        <use fill="#FFFFFF" fill-rule="evenodd" xlink:href="#path-14"></use>
                        <use fill="url(#linearGradient-13)" fill-rule="evenodd" xlink:href="#path-14"></use>
                        <use fill="black" fill-opacity="1" filter="url(#filter-15)" xlink:href="#path-14"></use>
                    </g>
                    <g id="Antennas" mask="url(#mask-12)" fill="url(#linearGradient-16)" fill-opacity="0.5">
                        <rect id="Rectangle-9" x="31.7145594" y="0" width="3.43231162" height="2.05938697"></rect>
                        <rect id="Rectangle-9-Copy-2" x="178.617497" y="0" width="3.43231162" height="2.05938697"></rect>
                        <rect id="Rectangle-9-Copy-3" transform="translate(213.077905, 33.087484) rotate(-270.000000) translate(-213.077905, -33.087484) " x="211.430396" y="32.4010217" width="3.29501916" height="1.37292465"></rect>
                        <rect id="Rectangle-9-Copy" transform="translate(0.686462, 33.087484) rotate(-90.000000) translate(-0.686462, -33.087484) " x="-0.961047254" y="32.4010217" width="3.29501916" height="1.37292465"></rect>
                        <rect id="Rectangle-9" transform="translate(34.117178, 438.031609) rotate(-180.000000) translate(-34.117178, -438.031609) " x="32.4010217" y="437.001916" width="3.43231162" height="2.05938697"></rect>
                        <rect id="Rectangle-9-Copy-2" transform="translate(181.020115, 438.031609) rotate(-180.000000) translate(-181.020115, -438.031609) " x="179.303959" y="437.001916" width="3.43231162" height="2.05938697"></rect>
                    </g>
                </g>
                <g id="Inner-Frame" transform="translate(1.235632, 1.372925)">
                    <mask id="mask-18" fill="white">
                        <use xlink:href="#path-17"></use>
                    </mask>
                    <g id="Mask"></g>
                    <g id="Inner-Frame-Copy" mask="url(#mask-18)">
                        <use fill="#0F0F0F" fill-rule="evenodd" xlink:href="#path-20"></use>
                        <use fill-opacity="0.12" fill="url(#linearGradient-19)" fill-rule="evenodd" xlink:href="#path-20"></use>
                        <use fill="black" fill-opacity="1" filter="url(#filter-21)" xlink:href="#path-20"></use>
                    </g>
                </g>
                <g id="Lens" transform="translate(40.501277, 18.534483)">
                    <mask id="mask-26" fill="white">
                        <use xlink:href="#path-25"></use>
                    </mask>
                    <g id="Mask">
                        <use fill="black" fill-opacity="1" filter="url(#filter-27)" xlink:href="#path-25"></use>
                        <use fill="url(#linearGradient-22)" fill-rule="evenodd" xlink:href="#path-25"></use>
                        <use fill="url(#radialGradient-23)" fill-rule="evenodd" xlink:href="#path-25"></use>
                        <use fill="url(#radialGradient-24)" fill-rule="evenodd" xlink:href="#path-25"></use>
                        <use fill="black" fill-opacity="1" filter="url(#filter-28)" xlink:href="#path-25"></use>
                    </g>
                    <g id="Camera" mask="url(#mask-26)">
                        <g transform="translate(1.372925, 1.372925)" id="Shape">
                            <circle fill="url(#linearGradient-29)" fill-rule="evenodd" opacity="0.3" style="mix-blend-mode: overlay;" filter="url(#filter-30)" cx="1.30427842" cy="1.30427842" r="1.30427842"></circle>
                            <g fill="none" filter="url(#filter-32)">
                                <use fill="#1A1222" fill-rule="evenodd" xlink:href="#path-31"></use>
                                <circle stroke="#1D172A" stroke-width="2" cx="1.30427842" cy="1.30427842" r="1"></circle>
                            </g>
                            <path d="M3.42834853,3.02593008 C3.29188108,2.48439417 2.38060109,1.33466807 1.97480484,1.51497778 C1.78192629,1.60068058 1.35762434,2.56022356 1.84544611,3.16460447 C2.33326788,3.76898538 3.55036082,3.70354864 3.42834853,3.02593008 Z" fill="#FFFFFF" fill-rule="evenodd" style="mix-blend-mode: saturation;" opacity="0.1" filter="url(#filter-33)" transform="translate(2.528070, 2.537526) rotate(-270.000000) translate(-2.528070, -2.537526) "></path>
                        </g>
                    </g>
                </g>
                <g id="Speaker" transform="translate(68.371648, 17.848020)">
                    <g id="Shape" fill-rule="nonzero">
                        <use fill="black" fill-opacity="1" filter="url(#filter-35)" xlink:href="#path-34"></use>
                        <use fill="#000000" fill-rule="evenodd" xlink:href="#path-34"></use>
                    </g>
                    <g id="Path-+-Speaker-Copy" transform="translate(1.647510, 1.647510)">
                        <mask id="mask-37" fill="white">
                            <use xlink:href="#path-36"></use>
                        </mask>
                        <use id="Mask" fill="#212121" xlink:href="#path-36"></use>
                        <rect id="Top-half" fill="#FFFFFF" opacity="0.04" filter="url(#filter-38)" mask="url(#mask-37)" x="0" y="-1.64750958" width="74.137931" height="3.56960409" rx="1.78480204"></rect>
                    </g>
                    <g id="Highlights" fill-opacity="1" fill="black">
                        <use filter="url(#filter-40)" xlink:href="#path-39"></use>
                    </g>
                </g>
                <g id="Mic" transform="translate(68.371648, 418.742018)">
                    <g id="Shape" fill-rule="nonzero">
                        <use fill="black" fill-opacity="1" filter="url(#filter-42)" xlink:href="#path-41"></use>
                        <use fill="#000000" fill-rule="evenodd" xlink:href="#path-41"></use>
                    </g>
                    <g id="Path-+-Speaker" transform="translate(1.647510, 1.647510)">
                        <mask id="mask-44" fill="white">
                            <use xlink:href="#path-43"></use>
                        </mask>
                        <use id="Mask" fill="#181818" xlink:href="#path-43"></use>
                        <rect id="Top-half" fill="#FFFFFF" opacity="0.03" filter="url(#filter-45)" mask="url(#mask-44)" x="0" y="-1.64750958" width="74.137931" height="3.56960409" rx="1.78480204"></rect>
                    </g>
                    <g id="Highlights" fill-opacity="1" fill="black">
                        <use filter="url(#filter-47)" xlink:href="#path-46"></use>
                    </g>
                </g>
                <path d="M8.10025543,44.894636 L8.10025543,44.894636 L205.801405,44.894636 C205.953054,44.894636 206.07599,45.0175719 206.07599,45.1692209 L206.07599,396.637931 C206.07599,396.78958 205.953054,396.912516 205.801405,396.912516 L8.10025543,396.912516 C7.94860636,396.912516 7.8256705,396.78958 7.8256705,396.637931 L7.8256705,45.1692209 C7.8256705,45.0175719 7.94860636,44.894636 8.10025543,44.894636 L8.10025543,44.894636 Z" id="Screen-Edge" fill="#000000" fill-rule="nonzero"></path>
            </g>
            <rect id="Screen" fill="#1D2129" x="8.10025543" y="45.1692209" width="197.701149" height="351.46871"></rect>
        </g>
    </g>
</svg>