<?xml version="1.0" encoding="UTF-8"?>
<svg width="184px" height="145px" viewBox="0 0 184 145" version="1.1" xmlns="http://www.w3.org/2000/svg" xmlns:xlink="http://www.w3.org/1999/xlink">
    <!-- Generator: Sketch 47.1 (45422) - http://www.bohemiancoding.com/sketch -->
    <title>Group 9</title>
    <desc>Created with Sketch.</desc>
    <defs>
        <rect id="path-1" x="0" y="15" width="184" height="130" rx="12"></rect>
        <rect id="path-2" x="0" y="0" width="10" height="36" rx="5"></rect>
        <rect id="path-3" x="105" y="0" width="10" height="36" rx="5"></rect>
        <rect id="path-4" x="52.5" y="0" width="10" height="36" rx="5"></rect>
    </defs>
    <g id="Page-1" stroke="none" stroke-width="1" fill="none" fill-rule="evenodd">
        <g id="Group-9">
            <g id="Rectangle-3">
                <use fill="#150958" fill-rule="evenodd" xlink:href="#path-1"></use>
                <rect stroke="#FFFFFF" stroke-width="7" x="3.5" y="18.5" width="177" height="123" rx="12"></rect>
            </g>
            <g id="Group-2" transform="translate(31.000000, 45.500000)" stroke="#8F8F8F" stroke-width="4" stroke-linecap="round">
                <path d="M1,0 L1,11" id="Path-7"></path>
                <path d="M31,0 L31,11" id="Path-7"></path>
                <path d="M61,0 L61,11" id="Path-7"></path>
                <path d="M91,0 L91,11" id="Path-7"></path>
                <path d="M121,0 L121,11" id="Path-7"></path>
            </g>
            <g id="Group-4" transform="translate(35.000000, 0.000000)">
                <g id="Rectangle-4">
                    <use fill="#FFFFFF" fill-rule="evenodd" xlink:href="#path-2"></use>
                    <rect stroke="#150958" stroke-width="3" x="1.5" y="1.5" width="7" height="33" rx="3.5"></rect>
                </g>
                <g id="Rectangle-4">
                    <use fill="#FFFFFF" fill-rule="evenodd" xlink:href="#path-3"></use>
                    <rect stroke="#150958" stroke-width="3" x="106.5" y="1.5" width="7" height="33" rx="3.5"></rect>
                </g>
                <g id="Rectangle-4">
                    <use fill="#FFFFFF" fill-rule="evenodd" xlink:href="#path-4"></use>
                    <rect stroke="#150958" stroke-width="3" x="54" y="1.5" width="7" height="33" rx="3.5"></rect>
                </g>
            </g>
            <g id="Group-8" transform="translate(7.000000, 63.000000)">
                <g id="Group-3" transform="translate(0.000000, 6.000000)" stroke="#8F8F8F" stroke-width="3">
                    <path d="M0,36.5 L170,36.5" id="Path-5"></path>
                    <path d="M0,53.5 L170,53.5" id="Path-5"></path>
                    <path d="M0,17.5 L170,17.5" id="Path-5"></path>
                    <path d="M0,0.5 L170,0.5" id="Path-5"></path>
                    <path d="M20,54.4220922 L20,1.09709223" id="Path-6"></path>
                    <path d="M46,54.4220922 L46,1.09709223" id="Path-6"></path>
                    <path d="M72,54.4220922 L72,1.09709223" id="Path-6"></path>
                    <path d="M98,54.4220922 L98,1.09709223" id="Path-6"></path>
                    <path d="M124,54.4220922 L124,1.09709223" id="Path-6"></path>
                    <path d="M150,54.4220922 L150,1.09709223" id="Path-6"></path>
                </g>
                <g id="Group-5" transform="translate(44.000000, 0.000000)" stroke="#FFFFFF">
                    <circle id="Oval" stroke-width="5" fill="#150958" cx="15" cy="15" r="15"></circle>
                    <polyline id="Path-8" stroke-width="2" points="11 16.1181005 13.5854864 18.3954743 16.8150429 14.6653081 19.9884456 11"></polyline>
                </g>
                <g id="Group-7" transform="translate(18.000000, 36.000000)" stroke="#FFFFFF">
                    <circle id="Oval" stroke-width="5" fill="#150958" cx="15" cy="15" r="15"></circle>
                    <polyline id="Path-8" stroke-width="2" points="11 16.1181005 13.5854864 18.3954743 16.8150429 14.6653081 19.9884456 11"></polyline>
                </g>
                <g id="Group-6" transform="translate(96.000000, 19.000000)" stroke="#FFFFFF">
                    <circle id="Oval" stroke-width="5" fill="#150958" cx="15" cy="15" r="15"></circle>
                    <polyline id="Path-8" stroke-width="2" points="11 16.1181005 13.5854864 18.3954743 16.8150429 14.6653081 19.9884456 11"></polyline>
                </g>
            </g>
        </g>
    </g>
</svg>