<?xml version="1.0" encoding="UTF-8"?>
<svg width="164px" height="128px" viewBox="0 0 164 128" version="1.1" xmlns="http://www.w3.org/2000/svg" xmlns:xlink="http://www.w3.org/1999/xlink">
    <!-- Generator: Sketch 47.1 (45422) - http://www.bohemiancoding.com/sketch -->
    <title>Group 28</title>
    <desc>Created with Sketch.</desc>
    <defs></defs>
    <g id="Page-1" stroke="none" stroke-width="1" fill="none" fill-rule="evenodd">
        <g id="Group-28" transform="translate(3.000000, 3.000000)">
            <path d="M113.855949,110.190479 C139.498371,100.611214 157.086197,80.9248677 157.086197,58.1948897 C157.086197,26.0547396 121.921254,0 78.5430984,0 C35.1649429,0 0,26.0547396 0,58.1948897 C0,90.3350398 35.1649429,116.389779 78.5430984,116.389779 C82.8298164,116.389779 87.0363258,116.135334 91.1366162,115.645716 C101.008037,121.126766 119.001522,123.061951 145.117071,121.451272 C149.215059,122.666241 141.783429,120.274632 122.822183,114.276446 C119.207788,113.133071 116.219044,111.771082 113.855949,110.190479 Z" id="Combined-Shape" stroke="#FFFFFF" stroke-width="6" fill="#150958"></path>
            <g id="shopping-cart" transform="translate(48.000000, 39.000000)" fill-rule="nonzero" fill="#FFFFFF">
                <path d="M51.3408018,6.5325 C50.8248546,5.92242857 50.0819986,5.57142857 49.2986232,5.57142857 L11.9694356,5.57142857 L11.4426832,2.32885714 C11.2265796,0.986142857 10.1001398,0 8.77920688,0 L2.70129442,0 C1.20747861,0 0,1.24521429 0,2.78571429 C0,4.32621429 1.20747861,5.57142857 2.70129442,5.57142857 L6.4912105,5.57142857 L11.5156181,36.6711429 C11.5372285,36.7965 11.5993583,36.8995714 11.6371764,37.0165714 C11.6803971,37.1642143 11.7155139,37.3035 11.7830463,37.4372143 C11.8694877,37.6210714 11.9856434,37.7770714 12.1072016,37.9358571 C12.1909417,38.0445 12.266578,38.1531429 12.3638246,38.2478571 C12.5204997,38.3982857 12.7014864,38.5041429 12.8851744,38.61 C12.9878236,38.6685 13.0769663,38.7465 13.1877194,38.7910714 C13.5010695,38.922 13.8306274,39 14.1790944,39 C14.1817957,39 43.8960344,39 43.8960344,39 C45.3898502,39 46.5973288,37.7547857 46.5973288,36.2142857 C46.5973288,34.6737857 45.3898502,33.4285714 43.8960344,33.4285714 L16.4697921,33.4285714 L16.0213772,30.6428571 L46.5973288,30.6428571 C47.9425734,30.6428571 49.0825197,29.6232857 49.2716103,28.2527143 L51.9729047,8.75271429 C52.0836578,7.95042857 51.8513465,7.13978571 51.3408018,6.5325 Z M46.1840308,11.1428571 L45.4141618,16.7142857 L35.7921511,16.7142857 L35.7921511,11.1428571 L46.1840308,11.1428571 Z M33.0908567,11.1428571 L33.0908567,16.7142857 L24.9869734,16.7142857 L24.9869734,11.1428571 L33.0908567,11.1428571 Z M33.0908567,19.5 L33.0908567,25.0714286 L24.9869734,25.0714286 L24.9869734,19.5 L33.0908567,19.5 Z M22.285679,11.1428571 L22.285679,16.7142857 L14.1817957,16.7142857 C14.0386271,16.7142857 13.908965,16.7560714 13.7820041,16.7978571 L12.8689666,11.1428571 L22.285679,11.1428571 Z M14.2196138,19.5 L22.285679,19.5 L22.285679,25.0714286 L15.1191449,25.0714286 L14.2196138,19.5 Z M35.7921511,25.0714286 L35.7921511,19.5 L45.0251754,19.5 L44.2553065,25.0714286 L35.7921511,25.0714286 Z" id="Shape"></path>
                <circle id="Oval" cx="18.5" cy="44.5" r="4.5"></circle>
                <circle id="Oval" cx="43.5" cy="44.5" r="4.5"></circle>
            </g>
            <polygon id="Path-13" fill="#150958" points="59.9754148 44.567859 63.3874637 64.1015656 95.0322053 64.1015656 98 44.3133394"></polygon>
            <g id="download-arrow" transform="translate(68.000000, 22.000000)" fill-rule="nonzero" fill="#7ED321">
                <path d="M19.3036359,18.8258419 C19.9308452,18.195189 20.9182759,18.195189 21.5454852,18.8258419 C22.1515049,19.4564948 22.1515049,20.4493471 21.5454852,21.08 L12.1514728,30.5270103 C11.8604703,30.8196105 11.4564572,31 11.0086524,31 C10.5608476,31 10.1568344,30.8196105 9.8644193,30.5270103 L0.470406935,21.08 C-0.156802312,20.4493471 -0.156802312,19.4564948 0.470406935,18.8258419 C1.09761618,18.195189 2.08504695,18.195189 2.7122562,18.8258419 L9.4166145,25.5897365 L9.4166145,1.57805269 C9.41520186,0.698831615 10.1328196,0 11.0072397,0 C11.8816598,0 12.5766755,0.698831615 12.5766755,1.57805269 L12.5766755,25.5883162 L19.3036359,18.8258419 Z" id="Shape"></path>
            </g>
            <rect id="Rectangle-8" fill="#FFFFFF" transform="translate(97.500000, 55.000000) rotate(8.000000) translate(-97.500000, -55.000000) " x="96" y="44" width="3" height="22" rx="1.5"></rect>
        </g>
    </g>
</svg>