<?xml version="1.0" encoding="UTF-8"?>
<svg width="234px" height="105px" viewBox="0 0 234 105" version="1.1" xmlns="http://www.w3.org/2000/svg" xmlns:xlink="http://www.w3.org/1999/xlink">
    <!-- Generator: Sketch 47.1 (45422) - http://www.bohemiancoding.com/sketch -->
    <title>Group 18</title>
    <desc>Created with Sketch.</desc>
    <defs></defs>
    <g id="Page-1" stroke="none" stroke-width="1" fill="none" fill-rule="evenodd">
        <g id="Group-53" transform="translate(-554.000000, -17890.000000)">
            <g id="Group-12" transform="translate(0.000000, 17632.000000)">
                <g id="Group-46" transform="translate(75.000000, 51.000000)">
                    <g id="Group-45">
                        <g id="Group-28" transform="translate(0.000000, 207.000000)">
                            <g id="Group-18" transform="translate(479.000000, 0.000000)">
                                <rect id="Rectangle-6" fill="#FFFFFF" x="0" y="0" width="234" height="105" rx="24"></rect>
                                <g id="Group-16" transform="translate(34.000000, 19.000000)" fill="#150958">
                                    <text id="Log-In" font-family="OpenSans-Light, Open Sans" font-size="39.9799995" font-weight="300" letter-spacing="0.000998067087">
                                        <tspan x="58.103173" y="49">Log In</tspan>
                                    </text>
                                    <path d="M31.3459227,0 L31.3459227,11.7587783 L22.8243426,11.7587783 C21.6398366,12.4055632 20.9258733,13.2477511 20.6824528,14.285342 C20.4390322,15.322933 20.3987419,17.9369687 20.5615819,22.1274491 L31.3469847,22.1274491 L30.0464738,33.5287352 L20.5953505,33.5287352 L20.5953505,67 L6.47791271,67 L6.47791271,33.5609892 L0,33.5609892 L0,22.1428599 L6.56853189,22.1428599 L6.47791271,12.9098278 C7.83895202,4.30327592 11.551635,1.58734917e-15 17.6159616,0 C23.6802883,0 28.256942,0 31.3459227,0 Z" id="Path-14"></path>
                                </g>
                            </g>
                        </g>
                    </g>
                </g>
            </g>
        </g>
    </g>
</svg>