<?xml version="1.0" encoding="UTF-8"?>
<svg width="69px" height="71px" viewBox="0 0 69 71" version="1.1" xmlns="http://www.w3.org/2000/svg" xmlns:xlink="http://www.w3.org/1999/xlink">
    <!-- Generator: Sketch 47.1 (45422) - http://www.bohemiancoding.com/sketch -->
    <title>Group 26</title>
    <desc>Created with Sketch.</desc>
    <defs></defs>
    <g id="Page-1" stroke="none" stroke-width="1" fill="none" fill-rule="evenodd">
        <g id="Group-26">
            <path d="M28,0 L58,0 C60.7614237,-5.07265313e-16 63,2.23857625 63,5 L63,66 C63,68.7614237 60.7614237,71 58,71 L28,71 C25.2385763,71 23,68.7614237 23,66 L23,5 L23,5 C23,2.23857625 25.2385763,5.07265313e-16 28,0 L28,0 Z M26,7 L26,61 L60,61 L60,7 L26,7 Z M38.5,3 C38.2238576,3 38,3.22385763 38,3.5 C38,3.77614237 38.2238576,4 38.5,4 L47.5,4 C47.7761424,4 48,3.77614237 48,3.5 C48,3.22385763 47.7761424,3 47.5,3 L38.5,3 Z M43,68 C44.1045695,68 45,67.1045695 45,66 C45,64.8954305 44.1045695,64 43,64 C41.8954305,64 41,64.8954305 41,66 C41,67.1045695 41.8954305,68 43,68 Z" id="Combined-Shape" fill="#150958"></path>
            <path d="M57,31 L65,31 C67.209139,31 69,29.209139 69,27 C69,24.790861 67.209139,23 65,23 L57,23 C54.790861,23 53,24.790861 53,27 C53,29.209139 54.790861,31 57,31 Z" id="Combined-Shape" fill="#8F8F8F"></path>
            <path d="M57,40.3333333 L65,40.3333333 C67.209139,40.3333333 69,38.5424723 69,36.3333333 C69,34.1241943 67.209139,32.3333333 65,32.3333333 L57,32.3333333 C54.790861,32.3333333 53,34.1241943 53,36.3333333 C53,38.5424723 54.790861,40.3333333 57,40.3333333 Z" id="Combined-Shape" fill="#8F8F8F"></path>
            <path d="M57,49.6666667 L65,49.6666667 C67.209139,49.6666667 69,47.8758057 69,45.6666667 C69,43.4575277 67.209139,41.6666667 65,41.6666667 L57,41.6666667 C54.790861,41.6666667 53,43.4575277 53,45.6666667 C53,47.8758057 54.790861,49.6666667 57,49.6666667 Z" id="Combined-Shape" fill="#8F8F8F"></path>
            <path d="M57,59 L65,59 C67.209139,59 69,57.209139 69,55 C69,52.790861 67.209139,51 65,51 L57,51 C54.790861,51 53,52.790861 53,55 C53,57.209139 54.790861,59 57,59 Z" id="Combined-Shape" fill="#8F8F8F"></path>
            <path d="M23.7504856,59.7206492 L16.3427898,59.7206492 C8.85156057,59.015255 4.02036271,55.1715385 1.84919624,48.1894994 C-1.40755347,37.7164409 4.36507063,28.7230182 6.8523956,26.9307485 C8.51061225,25.735902 17.8858689,20.4152518 34.9781654,10.9687978 C38.8573632,11.1154221 40.3041026,12.8885413 39.3183836,16.2881557 C38.3326646,19.68777 33.2970388,23.5934024 24.211506,28.0050529 L23.7504856,59.7206492 Z" id="Path-14" fill="#8F8F8F"></path>
            <rect id="Path" fill="#150958" x="23" y="28" width="2" height="33"></rect>
        </g>
    </g>
</svg>