<?xml version="1.0" encoding="UTF-8"?>
<svg width="222px" height="222px" viewBox="0 0 222 222" version="1.1" xmlns="http://www.w3.org/2000/svg" xmlns:xlink="http://www.w3.org/1999/xlink">
    <!-- Generator: Sketch 47.1 (45422) - http://www.bohemiancoding.com/sketch -->
    <title>Group 24</title>
    <desc>Created with Sketch.</desc>
    <defs>
        <rect id="path-1" x="4" y="4" width="18" height="32"></rect>
        <rect id="path-2" x="2" y="2" width="18" height="32"></rect>
        <rect id="path-3" x="0" y="0" width="18" height="32"></rect>
        <rect id="path-4" x="0" y="12" width="30" height="6"></rect>
    </defs>
    <g id="Page-1" stroke="none" stroke-width="1" fill="none" fill-rule="evenodd">
        <g id="Group-24" transform="translate(3.000000, 3.000000)">
            <g id="Group-16">
                <path d="M108,216 C48.353247,216 0,167.646753 0,108 C0,88.7355115 5.04390613,70.6490904 13.883144,54.989311 C32.4119745,22.163246 67.6177355,0 108,0 C167.646753,0 216,48.353247 216,108 C216,167.646753 167.646753,216 108,216 Z M71,186 C85.9116882,186 98,173.911688 98,159 C98,144.088312 85.9116882,132 71,132 C56.0883118,132 44,144.088312 44,159 C44,173.911688 56.0883118,186 71,186 Z M47,119 C61.9116882,119 74,106.911688 74,92 C74,77.0883118 61.9116882,65 47,65 C32.0883118,65 20,77.0883118 20,92 C20,106.911688 32.0883118,119 47,119 Z M144,186 C158.911688,186 171,173.911688 171,159 C171,144.088312 158.911688,132 144,132 C129.088312,132 117,144.088312 117,159 C117,173.911688 129.088312,186 144,186 Z M168,119 C182.911688,119 195,106.911688 195,92 C195,77.0883118 182.911688,65 168,65 C153.088312,65 141,77.0883118 141,92 C141,106.911688 153.088312,119 168,119 Z M108,75 C122.911688,75 135,62.9116882 135,48 C135,33.0883118 122.911688,21 108,21 C93.0883118,21 81,33.0883118 81,48 C81,62.9116882 93.0883118,75 108,75 Z M108,123 C116.284271,123 123,116.284271 123,108 C123,99.7157288 116.284271,93 108,93 C99.7157288,93 93,99.7157288 93,108 C93,116.284271 99.7157288,123 108,123 Z" id="Combined-Shape" stroke="#FFFFFF" stroke-width="6" fill="#150958"></path>
                <g id="Group-10" transform="translate(94.000000, 34.000000)">
                    <circle id="Oval-3" stroke="#150958" stroke-width="4" transform="translate(14.000000, 14.000000) scale(-1, 1) translate(-14.000000, -14.000000) " cx="14" cy="14" r="14"></circle>
                    <polygon id="Triangle-2" fill="#150958" points="22 14 10 20 10 8"></polygon>
                </g>
                <path d="M173.844779,100.562248 C178.088965,98.9485632 181,95.63228 181,91.8032787 C181,86.3890774 175.179702,82 168,82 C160.820298,82 155,86.3890774 155,91.8032787 C155,97.21748 160.820298,101.606557 168,101.606557 C168.709513,101.606557 169.40575,101.563695 170.084406,101.481215 C171.718267,102.404531 174.696445,102.730525 179.018939,102.459196 C179.697215,102.663865 178.467174,102.260984 175.328818,101.250554 C174.730585,101.057945 174.235905,100.82851 173.844779,100.562248 Z" id="Combined-Shape" fill="#150958"></path>
                <g id="Group-11" transform="translate(162.000000, 89.000000)" stroke="#FFFFFF" stroke-width="0.599999964">
                    <path d="M0,1 L11.6997365,1" id="Path-10"></path>
                    <path d="M0,3 L11.6997365,3" id="Path-10"></path>
                    <path d="M0,5 L11.6997365,5" id="Path-10"></path>
                </g>
                <g id="Group-14" transform="translate(36.000000, 74.000000)">
                    <g id="Rectangle-5">
                        <use fill="#150958" fill-rule="evenodd" xlink:href="#path-1"></use>
                        <rect stroke="#FFFFFF" stroke-width="0.700000048" x="4.35000002" y="4.35000002" width="17.3" height="31.3"></rect>
                    </g>
                    <g id="Rectangle-5">
                        <use fill="#150958" fill-rule="evenodd" xlink:href="#path-2"></use>
                        <rect stroke="#FFFFFF" stroke-width="0.700000048" x="2.35000002" y="2.35000002" width="17.3" height="31.3"></rect>
                    </g>
                    <g id="Group-13">
                        <g id="Rectangle-5">
                            <use fill="#150958" fill-rule="evenodd" xlink:href="#path-3"></use>
                            <rect stroke="#FFFFFF" stroke-width="0.700000048" x="0.350000024" y="0.350000024" width="17.3" height="31.3"></rect>
                        </g>
                        <g id="Group-12" transform="translate(4.000000, 5.000000)" stroke="#FFFFFF" stroke-width="0.5">
                            <path d="M0,9 L10,9" id="Path-11"></path>
                            <path d="M0,11 L10,11" id="Path-11"></path>
                            <path d="M0,13 L10,13" id="Path-11"></path>
                            <path d="M0,15 L10,15" id="Path-11"></path>
                            <path d="M0,1 L10,1" id="Path-11"></path>
                            <path d="M0,3 L10,3" id="Path-11"></path>
                            <path d="M0,5 L10,5" id="Path-11"></path>
                            <path d="M0,7 L10,7" id="Path-11"></path>
                        </g>
                    </g>
                </g>
                <g id="Speaker_Icon" transform="translate(55.000000, 147.000000)">
                    <polygon id="polygon1" fill="#150958" fill-rule="nonzero" points="16 0 7.77980772 7.26992099 0 7.26992099 0 16.625222 7.66192459 16.625222 16 24"></polygon>
                    <path d="M22.0540197,17 C23.2799492,15.5568452 24,13.8587144 24,12.0342609 C24,10.1799748 23.2602479,8.45713886 22,7" id="path1" stroke="#8F8F8F" stroke-width="2" stroke-linecap="round"></path>
                    <path d="M26,3 C27.8839225,5.38504179 29,8.33692563 29,11.5337235 C29,14.7008638 27.9032971,17.6269169 26.0489463,20" id="path2" stroke="#8F8F8F" stroke-width="2" stroke-linecap="round"></path>
                    <path d="M29.0474234,24 C31.5204836,20.7082159 33,16.5532396 33,12.0333326 C33,7.48182136 31.5012325,3.30166046 29,0" id="path1" stroke="#8F8F8F" stroke-width="2" stroke-linecap="round"></path>
                </g>
                <g id="Group-15" transform="translate(129.000000, 144.000000)">
                    <circle id="Oval-5" stroke="#FFFFFF" stroke-width="2" fill="#150958" cx="15" cy="15" r="15"></circle>
                    <ellipse id="Oval-6" stroke="#FFFFFF" stroke-width="2" fill="#150958" cx="15" cy="15" rx="8" ry="15"></ellipse>
                    <g id="Rectangle-6">
                        <use fill="#FFFFFF" fill-rule="evenodd" xlink:href="#path-4"></use>
                        <rect stroke="#FFFFFF" stroke-width="1" x="0.5" y="12.5" width="29" height="5"></rect>
                    </g>
                    <path d="M11.5672891,17 L11.3404516,17 L10.4736085,13.9138167 C10.4015962,13.6602815 10.3475878,13.4523492 10.3115817,13.2900137 C10.2827768,13.4487012 10.2418205,13.6310979 10.1887114,13.8372093 C10.1356024,14.0433207 9.84530736,15.0975737 9.31781761,17 L9.08557926,17 L8,13 L8.28894771,13 L8.98026187,15.5772914 C9.00726647,15.6812591 9.03247038,15.7774733 9.05587436,15.8659371 C9.07927834,15.9544008 9.10043162,16.0373913 9.11933484,16.1149111 C9.13823805,16.1924308 9.15534071,16.2672135 9.17064331,16.3392613 C9.18594591,16.4113091 9.19989808,16.4838118 9.21250022,16.5567715 C9.25570757,16.3087083 9.34752182,15.9320591 9.48794571,15.4268126 L10.1630572,13 L10.4682076,13 L11.2594382,15.7852257 C11.3512539,16.1062488 11.4169641,16.3652521 11.4565708,16.5622435 C11.4799748,16.4309159 11.5101294,16.2913824 11.5470357,16.1436389 C11.583942,15.9958953 11.8616351,14.9480262 12.3801233,13 L12.6582692,13 L11.5672891,17 Z M16.5011418,17 L16.2743044,17 L15.4074612,13.9138167 C15.335449,13.6602815 15.2814406,13.4523492 15.2454345,13.2900137 C15.2166296,13.4487012 15.1756732,13.6310979 15.1225642,13.8372093 C15.0694552,14.0433207 14.7791601,15.0975737 14.2516704,17 L14.019432,17 L12.9338528,13 L13.2228005,13 L13.9141146,15.5772914 C13.9411192,15.6812591 13.9663232,15.7774733 13.9897271,15.8659371 C14.0131311,15.9544008 14.0342844,16.0373913 14.0531876,16.1149111 C14.0720908,16.1924308 14.0891935,16.2672135 14.1044961,16.3392613 C14.1197987,16.4113091 14.1337509,16.4838118 14.146353,16.5567715 C14.1895603,16.3087083 14.2813746,15.9320591 14.4217985,15.4268126 L15.09691,13 L15.4020604,13 L16.193291,15.7852257 C16.2851066,16.1062488 16.3508168,16.3652521 16.3904236,16.5622435 C16.4138275,16.4309159 16.4439822,16.2913824 16.4808885,16.1436389 C16.5177948,15.9958953 16.7954879,14.9480262 17.3139761,13 L17.592122,13 L16.5011418,17 Z M21.4349946,17 L21.2081572,17 L20.341314,13.9138167 C20.2693018,13.6602815 20.2152934,13.4523492 20.1792873,13.2900137 C20.1504824,13.4487012 20.109526,13.6310979 20.056417,13.8372093 C20.0033079,14.0433207 19.7130129,15.0975737 19.1855232,17 L18.9532848,17 L17.8677056,13 L18.1566533,13 L18.8479674,15.5772914 C18.874972,15.6812591 18.9001759,15.7774733 18.9235799,15.8659371 C18.9469839,15.9544008 18.9681372,16.0373913 18.9870404,16.1149111 C19.0059436,16.1924308 19.0230463,16.2672135 19.0383489,16.3392613 C19.0536515,16.4113091 19.0676036,16.4838118 19.0802058,16.5567715 C19.1234131,16.3087083 19.2152274,15.9320591 19.3556513,15.4268126 L20.0307627,13 L20.3359131,13 L21.1271438,15.7852257 C21.2189594,16.1062488 21.2846696,16.3652521 21.3242763,16.5622435 C21.3476803,16.4309159 21.377835,16.2913824 21.4147413,16.1436389 C21.4516476,15.9958953 21.7293406,14.9480262 22.2478288,13 L22.5259748,13 L21.4349946,17 Z" id="WWW" fill="#150958"></path>
                </g>
            </g>
            <ellipse id="Oval-12" fill="#150958" cx="110" cy="108" rx="22" ry="24"></ellipse>
        </g>
    </g>
</svg>