<?xml version="1.0" encoding="UTF-8"?>
<svg width="52px" height="100px" viewBox="0 0 52 100" version="1.1" xmlns="http://www.w3.org/2000/svg" xmlns:xlink="http://www.w3.org/1999/xlink">
    <!-- Generator: Sketch 47 (45396) - http://www.bohemiancoding.com/sketch -->
    <title>Path 14</title>
    <desc>Created with Sketch.</desc>
    <defs>
        <filter x="-0.7%" y="-2.7%" width="101.5%" height="107.5%" filterUnits="objectBoundingBox" id="filter-1">
            <feOffset dx="0" dy="2" in="SourceAlpha" result="shadowOffsetOuter1"></feOffset>
            <feGaussianBlur stdDeviation="2" in="shadowOffsetOuter1" result="shadowBlurOuter1"></feGaussianBlur>
            <feColorMatrix values="0 0 0 0 0   0 0 0 0 0   0 0 0 0 0  0 0 0 0.5 0" type="matrix" in="shadowBlurOuter1" result="shadowMatrixOuter1"></feColorMatrix>
            <feMerge>
                <feMergeNode in="shadowMatrixOuter1"></feMergeNode>
                <feMergeNode in="SourceGraphic"></feMergeNode>
            </feMerge>
        </filter>
    </defs>
    <g id="Page-1" stroke="none" stroke-width="1" fill="none" fill-rule="evenodd">
        <g id="Group-47" transform="translate(-371.000000, -1793.000000)" fill="#FFFFFF">
            <g id="Group-32">
                <g id="Group-26" filter="url(#filter-1)" transform="translate(246.000000, 1748.000000)">
                    <g id="Group-25" transform="translate(129.000000, 47.000000)">
                        <path d="M43.1114851,0 L43.1114851,16.1463822 L31.3913651,16.1463822 C29.7622597,17.0345046 28.7803132,18.1909418 28.4455258,19.6156935 C28.1107383,21.0404453 28.0553252,24.6298674 28.2792865,30.38396 L43.1129456,30.38396 L41.3242933,46.0394573 L28.3257301,46.0394573 L28.3257301,92 L8.90937043,92 L8.90937043,46.0837463 L0,46.0837463 L0,30.4051211 L9.03400315,30.4051211 L8.90937043,17.7269277 C10.7812702,5.90897589 15.8874934,2.17964363e-15 24.2280399,0 C32.5685865,0 38.8630682,0 43.1114851,0 Z" id="Path-14"></path>
                    </g>
                </g>
            </g>
        </g>
    </g>
</svg>