<?xml version="1.0" encoding="UTF-8"?>
<svg width="121px" height="86px" viewBox="0 0 121 86" version="1.1" xmlns="http://www.w3.org/2000/svg" xmlns:xlink="http://www.w3.org/1999/xlink">
    <!-- Generator: Sketch 45.2 (43514) - http://www.bohemiancoding.com/sketch -->
    <title>Group 8</title>
    <desc>Created with Sketch.</desc>
    <defs></defs>
    <g id="Page-1" stroke="none" stroke-width="1" fill="none" fill-rule="evenodd">
        <g id="Android_L_Discover" transform="translate(-57.000000, -1086.000000)" stroke="#3F51B5" stroke-width="2" fill="#FFFFFF">
            <g id="Group-8" transform="translate(58.000000, 1087.000000)">
                <path d="M19,32.1506538 C19,26.552341 27.548486,22.0140119 38.0935778,22.0140119 C48.6386696,22.0140119 57.1871556,26.552341 57.1871556,32.1506538 L57.1871556,39.0238273 C57.1117095,42.3454331 48.5921598,45.0307678 38.0935778,45.0307678 C27.5949957,45.0307678 19.0754461,42.3454331 19.0004983,39.0238273 L19,32.1506538 Z" id="Combined-Shape"></path>
                <ellipse id="Oval-3" cx="38.049298" cy="11.8170018" rx="11.1120905" ry="11.8170018"></ellipse>
                <path d="M64.4608995,32.1506538 C64.4608995,26.552341 73.0093854,22.0140119 83.5544773,22.0140119 C94.0995691,22.0140119 102.648055,26.552341 102.648055,32.1506538 L102.648055,39.0238273 C102.572609,42.3454331 94.0530593,45.0307678 83.5544773,45.0307678 C73.0558952,45.0307678 64.5363456,42.3454331 64.4613978,39.0238273 L64.4608995,32.1506538 Z" id="Combined-Shape"></path>
                <ellipse id="Oval-3" cx="83.5101974" cy="11.8170018" rx="11.1120905" ry="11.8170018"></ellipse>
                <path d="M41,41.1506538 C41,35.552341 49.548486,31.0140119 60.0935778,31.0140119 C70.6386696,31.0140119 79.1871556,35.552341 79.1871556,41.1506538 L79.1871556,48.0238273 C79.1117095,51.3454331 70.5921598,54.0307678 60.0935778,54.0307678 C49.5949957,54.0307678 41.0754461,51.3454331 41.0004983,48.0238273 L41,41.1506538 Z" id="Combined-Shape"></path>
                <ellipse id="Oval-3" cx="60.049298" cy="20.8170018" rx="11.1120905" ry="11.8170018"></ellipse>
                <path d="M0,48.1506538 C0,42.552341 8.54848595,38.0140119 19.0935778,38.0140119 C29.6386696,38.0140119 38.1871556,42.552341 38.1871556,48.1506538 L38.1871556,55.0238273 C38.1117095,58.3454331 29.5921598,61.0307678 19.0935778,61.0307678 C8.59499574,61.0307678 0.0754461032,58.3454331 0.000498320525,55.0238273 L0,48.1506538 Z" id="Combined-Shape"></path>
                <ellipse id="Oval-3" cx="19.049298" cy="27.8170018" rx="11.1120905" ry="11.8170018"></ellipse>
                <path d="M80,48.1506538 C80,42.552341 88.548486,38.0140119 99.0935778,38.0140119 C109.63867,38.0140119 118.187156,42.552341 118.187156,48.1506538 L118.187156,55.0238273 C118.111709,58.3454331 109.59216,61.0307678 99.0935778,61.0307678 C88.5949957,61.0307678 80.0754461,58.3454331 80.0004983,55.0238273 L80,48.1506538 Z" id="Combined-Shape"></path>
                <ellipse id="Oval-3" cx="99.049298" cy="27.8170018" rx="11.1120905" ry="11.8170018"></ellipse>
                <path d="M19,62.1506538 C19,56.552341 27.548486,52.0140119 38.0935778,52.0140119 C48.6386696,52.0140119 57.1871556,56.552341 57.1871556,62.1506538 L57.1871556,69.0238273 C57.1117095,72.3454331 48.5921598,75.0307678 38.0935778,75.0307678 C27.5949957,75.0307678 19.0754461,72.3454331 19.0004983,69.0238273 L19,62.1506538 Z" id="Combined-Shape"></path>
                <ellipse id="Oval-3" cx="38.049298" cy="41.8170018" rx="11.1120905" ry="11.8170018"></ellipse>
                <path d="M64.4608995,62.1506538 C64.4608995,56.552341 73.0093854,52.0140119 83.5544773,52.0140119 C94.0995691,52.0140119 102.648055,56.552341 102.648055,62.1506538 L102.648055,69.0238273 C102.572609,72.3454331 94.0530593,75.0307678 83.5544773,75.0307678 C73.0558952,75.0307678 64.5363456,72.3454331 64.4613978,69.0238273 L64.4608995,62.1506538 Z" id="Combined-Shape"></path>
                <ellipse id="Oval-3" cx="83.5101974" cy="41.8170018" rx="11.1120905" ry="11.8170018"></ellipse>
                <path d="M41,70.1506538 C41,64.552341 49.548486,60.0140119 60.0935778,60.0140119 C70.6386696,60.0140119 79.1871556,64.552341 79.1871556,70.1506538 L79.1871556,77.0238273 C79.1117095,80.3454331 70.5921598,83.0307678 60.0935778,83.0307678 C49.5949957,83.0307678 41.0754461,80.3454331 41.0004983,77.0238273 L41,70.1506538 Z" id="Combined-Shape"></path>
                <ellipse id="Oval-3" cx="60.049298" cy="49.8170018" rx="11.1120905" ry="11.8170018"></ellipse>
            </g>
        </g>
    </g>
</svg>