<?xml version="1.0" encoding="UTF-8"?>
<svg width="28px" height="24px" viewBox="0 0 28 24" version="1.1" xmlns="http://www.w3.org/2000/svg" xmlns:xlink="http://www.w3.org/1999/xlink">
    <!-- Generator: Sketch 45 (43475) - http://www.bohemiancoding.com/sketch -->
    <title>Menu Button</title>
    <desc>Created with Sketch.</desc>
    <defs></defs>
    <g id="iOS-10-GUI" stroke="none" stroke-width="1" fill="none" fill-rule="evenodd" fill-opacity="0.45">
        <g id="Lockscreen---Force-Touch" transform="translate(-20.000000, -417.000000)" fill="#FFFFFF">
            <g id="Composer-Bar" transform="translate(0.000000, 407.000000)">
                <path d="M20,15.9943041 C20,12.6837413 22.6847577,10 26.0067025,10 L41.9932975,10 C45.3107077,10 48,12.6832456 48,15.9943041 L48,28.0056959 C48,31.3162587 45.3152423,34 41.9932975,34 L26.0067025,34 C22.6892923,34 20,31.3167544 20,28.0056959 L20,15.9943041 Z M37.0268615,23.2409055 C37.7121294,22.5556375 37.7140679,21.4463009 37.0268615,20.7590945 L32.6338835,16.3661165 C32.1457281,15.8779612 31.3542719,15.8779612 30.8661165,16.3661165 C30.3779612,16.8542719 30.3779612,17.6457281 30.8661165,18.1338835 L35.2590945,22.5268615 C34.9686046,22.2363715 34.9694321,21.762801 35.2590945,21.4731385 L30.8661165,25.8661165 C30.3779612,26.3542719 30.3779612,27.1457281 30.8661165,27.6338835 C31.3542719,28.1220388 32.1457281,28.1220388 32.6338835,27.6338835 L37.0268615,23.2409055 Z" id="Menu-Button"></path>
            </g>
        </g>
    </g>
</svg>